font.ufo
<glyph name="parenleft" format="1">
	<unicode hex="0028"/>
	<advance width="600"/>
	<outline>
		<contour>
			<point x="295" y="-179" type="curve"/>
			<point x="400" y="-110" type="line"/>
			<point x="336" y="-28"/>
			<point x="299" y="74"/>
			<point x="299" y="187" type="curve" smooth="yes"/>
			<point x="299" y="365"/>
			<point x="369" y="518"/>
			<point x="550" y="655" type="curve"/>
			<point x="473" y="743" type="line"/>
			<point x="282" y="615"/>
			<point x="167" y="430"/>
			<point x="167" y="187" type="curve" smooth="yes"/>
			<point x="167" y="39"/>
			<point x="216" y="-91"/>
		</contour>
	</outline>
</glyph>
<glyph name="one" format="1">
	<unicode hex="0031"/>
	<advance width="600"/>
	<outline>
		<contour>
			<point x="14" y="0" type="line"/>
			<point x="482" y="0" type="line"/>
			<point x="508" y="128" type="line"/>
			<point x="368" y="128" type="line"/>
			<point x="470" y="634" type="line"/>
			<point x="352" y="634" type="line"/>
			<point x="300" y="602"/>
			<point x="246" y="586"/>
			<point x="158" y="574" type="curve"/>
			<point x="138" y="474" type="line"/>
			<point x="278" y="474" type="line"/>
			<point x="208" y="128" type="line"/>
			<point x="40" y="128" type="line"/>
		</contour>
	</outline>
</glyph>
<glyph name="eight" format="1">
	<unicode hex="0038"/>
	<advance width="600"/>
	<outline>
		<contour>
			<point x="250" y="-12" type="curve" smooth="yes"/>
			<point x="406" y="-12"/>
			<point x="502" y="70"/>
			<point x="502" y="188" type="curve" smooth="yes"/>
			<point x="502" y="260"/>
			<point x="466" y="302"/>
			<point x="422" y="332" type="curve"/>
			<point x="422" y="336" type="line"/>
			<point x="494" y="370"/>
			<point x="538" y="424"/>
			<point x="538" y="502" type="curve" smooth="yes"/>
			<point x="538" y="597"/>
			<point x="450" y="646"/>
			<point x="342" y="646" type="curve" smooth="yes"/>
			<point x="208" y="646"/>
			<point x="112" y="574"/>
			<point x="112" y="460" type="curve" smooth="yes"/>
			<point x="112" y="406"/>
			<point x="140" y="364"/>
			<point x="178" y="326" type="curve"/>
			<point x="178" y="322" type="line"/>
			<point x="74" y="278"/>
			<point x="36" y="222"/>
			<point x="36" y="140" type="curve" smooth="yes"/>
			<point x="36" y="48"/>
			<point x="112" y="-12"/>
		</contour>
		<contour>
			<point x="344" y="375" type="curve"/>
			<point x="293" y="401"/>
			<point x="252" y="431"/>
			<point x="252" y="470" type="curve" smooth="yes"/>
			<point x="252" y="508"/>
			<point x="286" y="534"/>
			<point x="330" y="534" type="curve" smooth="yes"/>
			<point x="376" y="534"/>
			<point x="402" y="511"/>
			<point x="402" y="474" type="curve" smooth="yes"/>
			<point x="402" y="438"/>
			<point x="385" y="403"/>
		</contour>
		<contour>
			<point x="262" y="100" type="curve" smooth="yes"/>
			<point x="216" y="100"/>
			<point x="178" y="124"/>
			<point x="178" y="172" type="curve" smooth="yes"/>
			<point x="178" y="210"/>
			<point x="204" y="246"/>
			<point x="244" y="274" type="curve"/>
			<point x="318" y="234"/>
			<point x="356" y="212"/>
			<point x="356" y="170" type="curve" smooth="yes"/>
			<point x="356" y="122"/>
			<point x="310" y="100"/>
		</contour>
	</outline>
</glyph>
<glyph name="less" format="1">
	<unicode hex="003C"/>
	<advance width="600"/>
	<outline>
		<contour>
			<point x="504" y="27" type="line"/>
			<point x="504" y="172" type="line"/>
			<point x="246" y="330" type="line"/>
			<point x="246" y="334" type="line"/>
			<point x="504" y="492" type="line"/>
			<point x="504" y="637" type="line"/>
			<point x="115" y="387" type="line"/>
			<point x="115" y="277" type="line"/>
		</contour>
	</outline>
</glyph>
<glyph name="at" format="1">
	<unicode hex="0040"/>
	<advance width="600"/>
	<outline>
		<contour>
			<point x="282" y="-148" type="curve" smooth="yes"/>
			<point x="352" y="-148"/>
			<point x="410" y="-130"/>
			<point x="458" y="-94" type="curve"/>
			<point x="412" y="-12" type="line"/>
			<point x="378" y="-38"/>
			<point x="346" y="-52"/>
			<point x="301" y="-52" type="curve" smooth="yes"/>
			<point x="210" y="-52"/>
			<point x="122" y="20"/>
			<point x="122" y="166" type="curve" smooth="yes"/>
			<point x="122" y="419"/>
			<point x="260" y="554"/>
			<point x="374" y="554" type="curve" smooth="yes"/>
			<point x="459" y="554"/>
			<point x="482" y="505"/>
			<point x="482" y="440" type="curve" smooth="yes"/>
			<point x="482" y="428"/>
			<point x="480" y="414"/>
			<point x="476" y="396" type="curve"/>
			<point x="282" y="374"/>
			<point x="196" y="314"/>
			<point x="196" y="196" type="curve" smooth="yes"/>
			<point x="196" y="130"/>
			<point x="246" y="88"/>
			<point x="304" y="88" type="curve" smooth="yes"/>
			<point x="360" y="88"/>
			<point x="394" y="110"/>
			<point x="428" y="148" type="curve"/>
			<point x="432" y="148" type="line"/>
			<point x="433" y="100" type="line"/>
			<point x="516" y="100" type="line"/>
			<point x="574" y="390" type="line" smooth="yes"/>
			<point x="578" y="412"/>
			<point x="582" y="434"/>
			<point x="582" y="453" type="curve" smooth="yes"/>
			<point x="582" y="570"/>
			<point x="522" y="646"/>
			<point x="388" y="646" type="curve" smooth="yes"/>
			<point x="190" y="646"/>
			<point x="8" y="474"/>
			<point x="8" y="154" type="curve" smooth="yes"/>
			<point x="8" y="-48"/>
			<point x="137" y="-148"/>
		</contour>
		<contour>
			<point x="354" y="186" type="curve" smooth="yes"/>
			<point x="330" y="186"/>
			<point x="314" y="200"/>
			<point x="314" y="224" type="curve" smooth="yes"/>
			<point x="314" y="266"/>
			<point x="342" y="296"/>
			<point x="448" y="312" type="curve"/>
			<point x="428" y="214" type="line"/>
			<point x="404" y="196"/>
			<point x="378" y="186"/>
		</contour>
	</outline>
</glyph>
<glyph name="A" format="1">
	<unicode hex="0041"/>
	<advance width="600"/>
	<outline>
		<contour>
			<point x="-50" y="0" type="line"/>
			<point x="126" y="0" type="line"/>
			<point x="270" y="344" type="line" smooth="yes"/>
			<point x="296" y="407"/>
			<point x="320" y="469"/>
			<point x="344" y="530" type="curve"/>
			<point x="348" y="530" type="line"/>
			<point x="349" y="465"/>
			<point x="350" y="406"/>
			<point x="352" y="344" type="curve" smooth="yes"/>
			<point x="362" y="0" type="line"/>
			<point x="530" y="0" type="line"/>
			<point x="468" y="650" type="line"/>
			<point x="276" y="650" type="line"/>
		</contour>
		<contour>
			<point x="114" y="148" type="line"/>
			<point x="416" y="148" type="line"/>
			<point x="444" y="268" type="line"/>
			<point x="142" y="268" type="line"/>
		</contour>
		<contour>
			<point name="aboveUC" x="370" y="670" type="move"/>
		</contour>
		<contour>
			<point name="ogonekCXT-ATH" x="254" y="0" type="move"/>
		</contour>
		<contour>
			<point name="ogonekUC" x="430" y="0" type="move"/>
		</contour>
		<contour>
			<point name="baseLC" x="450" y="0" type="move"/>
		</contour>
		<contour>
			<point name="belowLC" x="250" y="-20" type="move"/>
		</contour>
	</outline>
</glyph>
<glyph name="C" format="1">
	<unicode hex="0043"/>
	<advance width="600"/>
	<outline>
		<contour>
			<point x="320" y="-12" type="curve" smooth="yes"/>
			<point x="412" y="-12"/>
			<point x="484" y="36"/>
			<point x="520" y="70" type="curve"/>
			<point x="454" y="172" type="line"/>
			<point x="424" y="146"/>
			<point x="388" y="126"/>
			<point x="354" y="126" type="curve" smooth="yes"/>
			<point x="266" y="126"/>
			<point x="230" y="180"/>
			<point x="230" y="274" type="curve" smooth="yes"/>
			<point x="230" y="414"/>
			<point x="314" y="524"/>
			<point x="408" y="524" type="curve" smooth="yes"/>
			<point x="438" y="524"/>
			<point x="462" y="508"/>
			<point x="486" y="472" type="curve"/>
			<point x="594" y="556" type="line"/>
			<point x="556" y="624"/>
			<point x="492" y="662"/>
			<point x="416" y="662" type="curve" smooth="yes"/>
			<point x="224" y="662"/>
			<point x="66" y="496"/>
			<point x="66" y="264" type="curve" smooth="yes"/>
			<point x="66" y="88"/>
			<point x="168" y="-12"/>
		</contour>
		<contour>
			<point name="aboveUC" x="420" y="670" type="move"/>
		</contour>
		<contour>
			<point name="baseLC" x="298" y="0" type="move"/>
		</contour>
		<contour>
			<point name="belowLC" x="294" y="-20" type="move"/>
		</contour>
	</outline>
</glyph>
<glyph name="F" format="1">
	<unicode hex="0046"/>
	<advance width="600"/>
	<outline>
		<contour>
			<point x="46" y="0" type="line"/>
			<point x="206" y="0" type="line"/>
			<point x="256" y="248" type="line"/>
			<point x="482" y="248" type="line"/>
			<point x="508" y="382" type="line"/>
			<point x="282" y="382" type="line"/>
			<point x="308" y="516" type="line"/>
			<point x="580" y="516" type="line"/>
			<point x="606" y="650" type="line"/>
			<point x="176" y="650" type="line"/>
		</contour>
		<contour>
			<point name="aboveUC" x="396" y="670" type="move"/>
		</contour>
		<contour>
			<point name="baseLC" x="130" y="0" type="move"/>
		</contour>
		<contour>
			<point name="belowLC" x="130" y="-20" type="move"/>
		</contour>
	</outline>
</glyph>
<glyph name="backslash" format="1">
	<unicode hex="005C"/>
	<advance width="600"/>
	<outline>
		<contour>
			<point x="315" y="-160" type="line"/>
			<point x="440" y="-160" type="line"/>
			<point x="284" y="710" type="line"/>
			<point x="159" y="710" type="line"/>
		</contour>
	</outline>
</glyph>
<glyph name="g" format="2">
	<unicode hex="0067"/>
	<advance width="600"/>
	<outline>
		<contour>
			<point x="209" y="-188" type="curve" smooth="yes"/>
			<point x="335" y="-188"/>
			<point x="451" y="-141"/>
			<point x="484" y="22" type="curve" smooth="yes"/>
			<point x="580" y="500" type="line"/>
			<point x="454" y="500" type="line"/>
			<point x="430" y="450" type="line"/>
			<point x="426" y="450" type="line"/>
			<point x="404" y="488"/>
			<point x="358" y="512"/>
			<point x="294" y="512" type="curve" smooth="yes"/>
			<point x="164" y="512"/>
			<point x="36" y="386"/>
			<point x="36" y="206" type="curve" smooth="yes"/>
			<point x="36" y="94"/>
			<point x="99" y="20"/>
			<point x="204" y="20" type="curve" smooth="yes"/>
			<point x="256" y="20"/>
			<point x="312" y="44"/>
			<point x="348" y="78" type="curve"/>
			<point x="352" y="78" type="line"/>
			<point x="332" y="14" type="line" smooth="yes"/>
			<point x="310" y="-56"/>
			<point x="255" y="-62"/>
			<point x="205" y="-62" type="curve" smooth="yes"/>
			<point x="155" y="-62"/>
			<point x="103" y="-42"/>
			<point x="66" y="-10" type="curve"/>
			<point x="-2" y="-121" type="line"/>
			<point x="49" y="-160"/>
			<point x="115" y="-188"/>
		</contour>
		<contour>
			<point x="262" y="150" type="curve" smooth="yes"/>
			<point x="222" y="150"/>
			<point x="202" y="174"/>
			<point x="202" y="230" type="curve" smooth="yes"/>
			<point x="202" y="328"/>
			<point x="270" y="382"/>
			<point x="321" y="382" type="curve" smooth="yes"/>
			<point x="349" y="382"/>
			<point x="372" y="368"/>
			<point x="390" y="342" type="curve"/>
			<point x="360" y="200" type="line"/>
			<point x="330" y="167"/>
			<point x="296" y="150"/>
		</contour>
	</outline>
	<anchor name="aboveLC" x="346" y="520"/>
	<anchor name="belowLC" x="216" y="-200"/>
</glyph>
<glyph name="j" format="1">
	<unicode hex="006A"/>
	<advance width="600"/>
	<outline>
		<component base="dotlessj"/>
		<component base="dotaccentcmb" xOffset="58"/>
		<contour>
			<point name="aboveUC" x="440" y="770" type="move"/>
		</contour>
		<contour>
			<point name="belowLC" x="170" y="-200" type="move"/>
		</contour>
	</outline>
</glyph>
<glyph name="m" format="1">
	<unicode hex="006D"/>
	<advance width="600"/>
	<outline>
		<contour>
			<point x="-28" y="0" type="line"/>
			<point x="120" y="0" type="line"/>
			<point x="184" y="334" type="line"/>
			<point x="201" y="365"/>
			<point x="218" y="376"/>
			<point x="236" y="376" type="curve" smooth="yes"/>
			<point x="247" y="376"/>
			<point x="254" y="372"/>
			<point x="254" y="358" type="curve" smooth="yes"/>
			<point x="254" y="354"/>
			<point x="254" y="350"/>
			<point x="252" y="340" type="curve" smooth="yes"/>
			<point x="181" y="0" type="line"/>
			<point x="305" y="0" type="line"/>
			<point x="374" y="335" type="line"/>
			<point x="390" y="364"/>
			<point x="404" y="376"/>
			<point x="422" y="376" type="curve" smooth="yes"/>
			<point x="432" y="376"/>
			<point x="438" y="372"/>
			<point x="438" y="358" type="curve" smooth="yes"/>
			<point x="438" y="354"/>
			<point x="438" y="350"/>
			<point x="436" y="340" type="curve" smooth="yes"/>
			<point x="366" y="0" type="line"/>
			<point x="512" y="0" type="line"/>
			<point x="588" y="372" type="line" smooth="yes"/>
			<point x="592" y="391"/>
			<point x="594" y="404"/>
			<point x="594" y="422" type="curve" smooth="yes"/>
			<point x="594" y="480"/>
			<point x="564" y="512"/>
			<point x="516" y="512" type="curve" smooth="yes"/>
			<point x="458" y="512"/>
			<point x="410" y="483"/>
			<point x="378" y="428" type="curve"/>
			<point x="389" y="434" type="line"/>
			<point x="385" y="487"/>
			<point x="363" y="512"/>
			<point x="320" y="512" type="curve" smooth="yes"/>
			<point x="260" y="512"/>
			<point x="215" y="475"/>
			<point x="188" y="436" type="curve"/>
			<point x="184" y="436" type="line"/>
			<point x="184" y="500" type="line"/>
			<point x="70" y="500" type="line"/>
		</contour>
		<contour>
			<point name="aboveLC" x="350" y="520" type="move"/>
		</contour>
		<contour>
			<point name="baseLC" x="444" y="0" type="move"/>
		</contour>
		<contour>
			<point name="belowLC" x="250" y="-20" type="move"/>
		</contour>
	</outline>
</glyph>
<glyph name="o" format="1">
	<unicode hex="006F"/>
	<advance width="600"/>
	<outline>
		<contour>
			<point x="256" y="-12" type="curve" smooth="yes"/>
			<point x="406" y="-12"/>
			<point x="548" y="106"/>
			<point x="548" y="288" type="curve" smooth="yes"/>
			<point x="548" y="424"/>
			<point x="462" y="512"/>
			<point x="322" y="512" type="curve" smooth="yes"/>
			<point x="172" y="512"/>
			<point x="30" y="394"/>
			<point x="30" y="212" type="curve" smooth="yes"/>
			<point x="30" y="76"/>
			<point x="116" y="-12"/>
		</contour>
		<contour>
			<point x="268" y="118" type="curve" smooth="yes"/>
			<point x="222" y="118"/>
			<point x="192" y="152"/>
			<point x="192" y="216" type="curve" smooth="yes"/>
			<point x="192" y="316"/>
			<point x="250" y="382"/>
			<point x="310" y="382" type="curve" smooth="yes"/>
			<point x="356" y="382"/>
			<point x="386" y="348"/>
			<point x="386" y="284" type="curve" smooth="yes"/>
			<point x="386" y="184"/>
			<point x="328" y="118"/>
		</contour>
		<contour>
			<point name="hornLC" x="354" y="500" type="move"/>
		</contour>
		<contour>
			<point name="aboveLC" x="340" y="520" type="move"/>
		</contour>
		<contour>
			<point name="ogonekLC" x="240" y="0" type="move"/>
		</contour>
		<contour>
			<point name="baseLC" x="240" y="0" type="move"/>
		</contour>
		<contour>
			<point name="belowLC" x="234" y="-20" type="move"/>
		</contour>
	</outline>
</glyph>
<glyph name="r" format="2">
	<unicode hex="0072"/>
	<advance width="600"/>
	<outline>
		<contour>
			<point x="64" y="0" type="line"/>
			<point x="224" y="0" type="line"/>
			<point x="266" y="206" type="line"/>
			<point x="320" y="308"/>
			<point x="390" y="370"/>
			<point x="452" y="370" type="curve" smooth="yes"/>
			<point x="480" y="370"/>
			<point x="504" y="365"/>
			<point x="526" y="354" type="curve"/>
			<point x="582" y="492" type="line"/>
			<point x="564" y="504"/>
			<point x="528" y="512"/>
			<point x="484" y="512" type="curve" smooth="yes"/>
			<point x="412" y="512"/>
			<point x="336" y="460"/>
			<point x="284" y="370" type="curve"/>
			<point x="280" y="370" type="line"/>
			<point x="292" y="500" type="line"/>
			<point x="162" y="501" type="line"/>
		</contour>
	</outline>
	<anchor name="aboveLC" x="380" y="520"/>
	<anchor name="baseLC" x="150" y="0"/>
	<anchor name="belowLC" x="150" y="-20"/>
</glyph>
<glyph name="x" format="1">
	<unicode hex="0078"/>
	<advance width="600"/>
	<outline>
		<contour>
			<point x="-23" y="0" type="line"/>
			<point x="154" y="0" type="line"/>
			<point x="209" y="77" type="line" smooth="yes"/>
			<point x="226" y="100"/>
			<point x="245" y="127"/>
			<point x="265" y="155" type="curve"/>
			<point x="271" y="155" type="line"/>
			<point x="283" y="128"/>
			<point x="294" y="101"/>
			<point x="304" y="78" type="curve" smooth="yes"/>
			<point x="339" y="0" type="line"/>
			<point x="503" y="0" type="line"/>
			<point x="380" y="247" type="line"/>
			<point x="594" y="500" type="line"/>
			<point x="417" y="500" type="line"/>
			<point x="363" y="422" type="line" smooth="yes"/>
			<point x="350" y="403"/>
			<point x="326" y="360"/>
			<point x="314" y="339" type="curve"/>
			<point x="310" y="339" type="line"/>
			<point x="302" y="362"/>
			<point x="289" y="399"/>
			<point x="279" y="422" type="curve" smooth="yes"/>
			<point x="245" y="500" type="line"/>
			<point x="85" y="500" type="line"/>
			<point x="198" y="259" type="line"/>
		</contour>
		<contour>
			<point name="aboveLC" x="330" y="520" type="move"/>
		</contour>
		<contour>
			<point name="baseLC" x="420" y="0" type="move"/>
		</contour>
		<contour>
			<point name="belowLC" x="246" y="-20" type="move"/>
		</contour>
	</outline>
</glyph>
<glyph name="asciitilde" format="1">
	<unicode hex="007E"/>
	<advance width="600"/>
	<outline>
		<contour>
			<point x="384" y="237" type="curve" smooth="yes"/>
			<point x="449" y="237"/>
			<point x="509" y="279"/>
			<point x="554" y="385" type="curve"/>
			<point x="458" y="430" type="line"/>
			<point x="439" y="378"/>
			<point x="414" y="350"/>
			<point x="386" y="350" type="curve" smooth="yes"/>
			<point x="332" y="350"/>
			<point x="299" y="423"/>
			<point x="216" y="423" type="curve" smooth="yes"/>
			<point x="151" y="423"/>
			<point x="91" y="381"/>
			<point x="46" y="274" type="curve"/>
			<point x="142" y="230" type="line"/>
			<point x="161" y="282"/>
			<point x="187" y="310"/>
			<point x="214" y="310" type="curve" smooth="yes"/>
			<point x="268" y="310"/>
			<point x="301" y="237"/>
		</contour>
	</outline>
</glyph>
<glyph name="copyright" format="1">
	<unicode hex="00A9"/>
	<advance width="600"/>
	<outline>
		<contour>
			<point x="234" y="-8" type="curve" smooth="yes"/>
			<point x="445" y="-8"/>
			<point x="594" y="153"/>
			<point x="594" y="396" type="curve" smooth="yes"/>
			<point x="594" y="558"/>
			<point x="502" y="654"/>
			<point x="372" y="656" type="curve" smooth="yes"/>
			<point x="174" y="659"/>
			<point x="12" y="499"/>
			<point x="12" y="254" type="curve" smooth="yes"/>
			<point x="12" y="92"/>
			<point x="104" y="-8"/>
		</contour>
		<contour>
			<point x="247" y="55" type="curve" smooth="yes"/>
			<point x="142" y="55"/>
			<point x="81" y="133"/>
			<point x="81" y="261" type="curve" smooth="yes"/>
			<point x="81" y="453"/>
			<point x="202" y="592"/>
			<point x="357" y="592" type="curve" smooth="yes"/>
			<point x="464" y="592"/>
			<point x="525" y="512"/>
			<point x="525" y="389" type="curve" smooth="yes"/>
			<point x="525" y="199"/>
			<point x="403" y="55"/>
		</contour>
		<contour>
			<point x="279" y="128" type="curve" smooth="yes"/>
			<point x="331" y="128"/>
			<point x="376" y="148"/>
			<point x="406" y="174" type="curve"/>
			<point x="366" y="248" type="line"/>
			<point x="346" y="233"/>
			<point x="327" y="221"/>
			<point x="302" y="222" type="curve" smooth="yes"/>
			<point x="273" y="223"/>
			<point x="256" y="244"/>
			<point x="256" y="286" type="curve" smooth="yes"/>
			<point x="256" y="359"/>
			<point x="291" y="424"/>
			<point x="352" y="424" type="curve" smooth="yes"/>
			<point x="372" y="424"/>
			<point x="386" y="415"/>
			<point x="398" y="397" type="curve"/>
			<point x="466" y="456" type="line"/>
			<point x="444" y="490"/>
			<point x="410" y="517"/>
			<point x="355" y="517" type="curve" smooth="yes"/>
			<point x="242" y="517"/>
			<point x="142" y="424"/>
			<point x="142" y="280" type="curve" smooth="yes"/>
			<point x="142" y="187"/>
			<point x="193" y="128"/>
		</contour>
	</outline>
</glyph>
<glyph name="Eth" format="2">
	<unicode hex="00D0"/>
	<advance width="600"/>
	<outline>
		<contour>
			<point x="330" y="298" type="line"/>
			<point x="346" y="374" type="line"/>
			<point x="84" y="374" type="line"/>
			<point x="12" y="368" type="line"/>
			<point x="-2" y="298" type="line"/>
		</contour>
		<component base="D"/>
	</outline>
	<anchor name="aboveUC" x="370" y="670"/>
	<anchor name="belowLC" x="230" y="-20"/>
</glyph>
<glyph name="dcaron" format="1">
	<unicode hex="010F"/>
	<advance width="600"/>
	<outline>
		<contour>
			<point x="120" y="-12" type="curve" smooth="yes"/>
			<point x="165" y="-12"/>
			<point x="214" y="2"/>
			<point x="256" y="46" type="curve"/>
			<point x="258" y="46" type="line"/>
			<point x="262" y="0" type="line"/>
			<point x="392" y="0" type="line"/>
			<point x="532" y="696" type="line"/>
			<point x="372" y="696" type="line"/>
			<point x="346" y="560" type="line"/>
			<point x="336" y="466" type="line"/>
			<point x="334" y="466" type="line"/>
			<point x="312" y="496"/>
			<point x="283" y="512"/>
			<point x="248" y="512" type="curve" smooth="yes"/>
			<point x="114" y="512"/>
			<point x="0" y="366"/>
			<point x="0" y="182" type="curve" smooth="yes"/>
			<point x="0" y="58"/>
			<point x="47" y="-12"/>
		</contour>
		<contour>
			<point x="200" y="118" type="curve" smooth="yes"/>
			<point x="182" y="118"/>
			<point x="166" y="143"/>
			<point x="166" y="202" type="curve" smooth="yes"/>
			<point x="166" y="308"/>
			<point x="216" y="382"/>
			<point x="268" y="382" type="curve" smooth="yes"/>
			<point x="284" y="382"/>
			<point x="296" y="372"/>
			<point x="304" y="354" type="curve"/>
			<point x="266" y="168" type="line"/>
			<point x="240" y="126"/>
			<point x="220" y="118"/>
		</contour>
		<component base="caron.a" xOffset="258"/>
	</outline>
</glyph>
<glyph name="eogonek" format="1">
	<unicode hex="0119"/>
	<advance width="600"/>
	<outline>
		<contour>
			<point x="326" y="-228" type="curve" smooth="yes"/>
			<point x="374" y="-228"/>
			<point x="418" y="-212"/>
			<point x="450" y="-188" type="curve"/>
			<point x="424" y="-124" type="line"/>
			<point x="408" y="-132"/>
			<point x="398" y="-134"/>
			<point x="384" y="-134" type="curve" smooth="yes"/>
			<point x="360" y="-134"/>
			<point x="338" y="-120"/>
			<point x="338" y="-94" type="curve" smooth="yes"/>
			<point x="338" y="-51"/>
			<point x="392" y="-8"/>
			<point x="498" y="52" type="curve"/>
			<point x="446" y="158" type="line"/>
			<point x="400" y="130"/>
			<point x="358" y="110"/>
			<point x="304" y="110" type="curve" smooth="yes"/>
			<point x="250" y="110"/>
			<point x="200" y="132"/>
			<point x="200" y="218" type="curve" smooth="yes"/>
			<point x="200" y="340"/>
			<point x="276" y="390"/>
			<point x="328" y="390" type="curve" smooth="yes"/>
			<point x="368" y="390"/>
			<point x="394" y="366"/>
			<point x="394" y="317" type="curve" smooth="yes"/>
			<point x="394" y="305"/>
			<point x="391" y="292"/>
			<point x="388" y="281" type="curve"/>
			<point x="430" y="304" type="line"/>
			<point x="176" y="304" type="line"/>
			<point x="159" y="204" type="line"/>
			<point x="522" y="204" type="line"/>
			<point x="528" y="222"/>
			<point x="540" y="270"/>
			<point x="540" y="314" type="curve" smooth="yes"/>
			<point x="540" y="432"/>
			<point x="464" y="512"/>
			<point x="332" y="512" type="curve" smooth="yes"/>
			<point x="178" y="512"/>
			<point x="40" y="392"/>
			<point x="40" y="212" type="curve" smooth="yes"/>
			<point x="40" y="56"/>
			<point x="138" y="-12"/>
			<point x="266" y="-12" type="curve" smooth="yes"/>
			<point x="278" y="-12"/>
			<point x="298" y="-10"/>
			<point x="310" y="-8" type="curve"/>
			<point x="272" y="-36"/>
			<point x="224" y="-80"/>
			<point x="224" y="-140" type="curve" smooth="yes"/>
			<point x="224" y="-198"/>
			<point x="266" y="-228"/>
		</contour>
		<contour>
			<point name="aboveLC" x="340" y="520" type="move"/>
		</contour>
	</outline>
</glyph>
<glyph name="Tbar" format="2">
	<unicode hex="0166"/>
	<advance width="600"/>
	<outline>
		<contour>
			<point x="82" y="280" type="line"/>
			<point x="506" y="280" type="line"/>
			<point x="522" y="356" type="line"/>
			<point x="168" y="356" type="line"/>
			<point x="96" y="350" type="line"/>
		</contour>
		<component base="T"/>
	</outline>
	<anchor name="aboveUC" x="370" y="670"/>
	<anchor name="belowLC" x="236" y="-20"/>
</glyph>
<glyph name="tbar" format="2">
	<unicode hex="0167"/>
	<advance width="600"/>
	<outline>
		<contour>
			<point x="28" y="218" type="line"/>
			<point x="504" y="218" type="line"/>
			<point x="520" y="294" type="line"/>
			<point x="164" y="294" type="line"/>
			<point x="42" y="288" type="line"/>
		</contour>
		<component base="t"/>
	</outline>
	<anchor name="aboveLC" x="326" y="644"/>
	<anchor name="belowLC" x="304" y="-20"/>
</glyph>
<glyph name="Uhorn" format="1">
	<unicode hex="01AF"/>
	<advance width="600"/>
	<outline>
		<contour>
			<point x="586" y="592" type="line"/>
			<point x="692" y="610"/>
			<point x="742" y="658"/>
			<point x="742" y="744" type="curve" smooth="yes"/>
			<point x="742" y="770"/>
			<point x="736" y="801"/>
			<point x="724" y="828" type="curve"/>
			<point x="606" y="792" type="line"/>
			<point x="613" y="775"/>
			<point x="618" y="748"/>
			<point x="618" y="732" type="curve" smooth="yes"/>
			<point x="618" y="684"/>
			<point x="591" y="655"/>
			<point x="535" y="649" type="curve"/>
		</contour>
		<component base="U"/>
		<contour>
			<point name="aboveUC" x="370" y="670" type="move"/>
		</contour>
		<contour>
			<point name="belowLC" x="230" y="-20" type="move"/>
		</contour>
	</outline>
</glyph>
<glyph name="aringacute" format="1">
	<unicode hex="01FB"/>
	<advance width="600"/>
	<outline>
		<contour>
			<point x="344" y="720" type="line"/>
			<point x="525" y="830" type="line"/>
			<point x="456" y="896" type="line"/>
			<point x="298" y="754" type="line"/>
		</contour>
		<component base="aring"/>
	</outline>
</glyph>
<glyph name="ccurl" format="2">
	<unicode hex="0255"/>
	<advance width="600"/>
	<outline>
		<contour>
			<point x="126" y="-94" type="line"/>
			<point x="212" y="84"/>
			<point x="304" y="184"/>
			<point x="388" y="184" type="curve" smooth="yes"/>
			<point x="414" y="184"/>
			<point x="424" y="174"/>
			<point x="424" y="162" type="curve" smooth="yes"/>
			<point x="424" y="138"/>
			<point x="392" y="110"/>
			<point x="342" y="110" type="curve" smooth="yes"/>
			<point x="274" y="110"/>
			<point x="212" y="144"/>
			<point x="212" y="220" type="curve" smooth="yes"/>
			<point x="212" y="314"/>
			<point x="286" y="390"/>
			<point x="356" y="390" type="curve" smooth="yes"/>
			<point x="394" y="390"/>
			<point x="434" y="372"/>
			<point x="466" y="338" type="curve"/>
			<point x="558" y="420" type="line"/>
			<point x="522" y="466"/>
			<point x="454" y="512"/>
			<point x="364" y="512" type="curve" smooth="yes"/>
			<point x="200" y="512"/>
			<point x="58" y="390"/>
			<point x="58" y="206" type="curve" smooth="yes"/>
			<point x="58" y="66"/>
			<point x="190" y="-12"/>
			<point x="316" y="-12" type="curve" smooth="yes"/>
			<point x="460" y="-12"/>
			<point x="548" y="76"/>
			<point x="548" y="182" type="curve" smooth="yes"/>
			<point x="548" y="252"/>
			<point x="500" y="296"/>
			<point x="414" y="296" type="curve" smooth="yes"/>
			<point x="278" y="296"/>
			<point x="136" y="192"/>
			<point x="10" y="-36" type="curve"/>
		</contour>
	</outline>
	<anchor name="aboveLC" x="397" y="520"/>
	<anchor name="belowLC" x="320" y="-20"/>
</glyph>
<glyph name="dhook" format="1">
	<unicode hex="0257"/>
	<advance width="600"/>
	<outline>
		<contour>
			<point x="188" y="-12" type="curve" smooth="yes"/>
			<point x="242" y="-12"/>
			<point x="300" y="16"/>
			<point x="346" y="66" type="curve"/>
			<point x="350" y="66" type="line"/>
			<point x="350" y="0" type="line"/>
			<point x="480" y="0" type="line"/>
			<point x="582" y="510" type="line" smooth="yes"/>
			<point x="592" y="558"/>
			<point x="608" y="574"/>
			<point x="642" y="574" type="curve" smooth="yes"/>
			<point x="648" y="574"/>
			<point x="650" y="574"/>
			<point x="658" y="572" type="curve"/>
			<point x="712" y="698" type="line"/>
			<point x="696" y="704"/>
			<point x="676" y="708"/>
			<point x="642" y="708" type="curve" smooth="yes"/>
			<point x="517" y="708"/>
			<point x="450" y="630"/>
			<point x="434" y="550" type="curve"/>
			<point x="422" y="456" type="line"/>
			<point x="420" y="456" type="line"/>
			<point x="396" y="490"/>
			<point x="358" y="512"/>
			<point x="294" y="512" type="curve" smooth="yes"/>
			<point x="156" y="512"/>
			<point x="28" y="366"/>
			<point x="28" y="182" type="curve" smooth="yes"/>
			<point x="28" y="58"/>
			<point x="90" y="-12"/>
		</contour>
		<contour>
			<point x="250" y="118" type="curve" smooth="yes"/>
			<point x="216" y="118"/>
			<point x="194" y="144"/>
			<point x="194" y="202" type="curve" smooth="yes"/>
			<point x="194" y="308"/>
			<point x="256" y="382"/>
			<point x="324" y="382" type="curve" smooth="yes"/>
			<point x="345" y="382"/>
			<point x="376" y="370"/>
			<point x="390" y="344" type="curve"/>
			<point x="358" y="188" type="line"/>
			<point x="324" y="138"/>
			<point x="282" y="118"/>
		</contour>
		<contour>
			<point name="aboveUC" x="540" y="730" type="move"/>
		</contour>
		<contour>
			<point name="belowLC" x="250" y="-20" type="move"/>
		</contour>
	</outline>
</glyph>
<glyph name="eopen" format="1">
	<unicode hex="025B"/>
	<advance width="600"/>
	<outline>
		<contour>
			<point x="258" y="-12" type="curve" smooth="yes"/>
			<point x="336" y="-12"/>
			<point x="408" y="-4"/>
			<point x="496" y="46" type="curve"/>
			<point x="452" y="154" type="line"/>
			<point x="394" y="125"/>
			<point x="340" y="110"/>
			<point x="302" y="110" type="curve" smooth="yes"/>
			<point x="243" y="110"/>
			<point x="210" y="128"/>
			<point x="210" y="158" type="curve" smooth="yes"/>
			<point x="210" y="190"/>
			<point x="243" y="204"/>
			<point x="296" y="204" type="curve"/>
			<point x="401" y="204" type="line"/>
			<point x="420" y="304" type="line"/>
			<point x="330" y="304" type="line"/>
			<point x="287" y="304"/>
			<point x="274" y="316"/>
			<point x="274" y="338" type="curve" smooth="yes"/>
			<point x="274" y="366"/>
			<point x="306" y="390"/>
			<point x="354" y="390" type="curve" smooth="yes"/>
			<point x="406" y="390"/>
			<point x="444" y="369"/>
			<point x="490" y="342" type="curve"/>
			<point x="574" y="452" type="line"/>
			<point x="511" y="495"/>
			<point x="443" y="512"/>
			<point x="364" y="512" type="curve" smooth="yes"/>
			<point x="230" y="512"/>
			<point x="108" y="454"/>
			<point x="108" y="358" type="curve" smooth="yes"/>
			<point x="108" y="321"/>
			<point x="130" y="284"/>
			<point x="189" y="266" type="curve"/>
			<point x="188" y="262" type="line"/>
			<point x="96" y="246"/>
			<point x="44" y="194"/>
			<point x="44" y="128" type="curve" smooth="yes"/>
			<point x="44" y="34"/>
			<point x="147" y="-12"/>
		</contour>
		<contour>
			<point name="aboveLC" x="376" y="520" type="move"/>
		</contour>
		<contour>
			<point name="baseLC" x="256" y="0" type="move"/>
		</contour>
		<contour>
			<point name="belowLC" x="250" y="-20" type="move"/>
		</contour>
	</outline>
</glyph>
<glyph name="istroke" format="1">
	<unicode hex="0268"/>
	<advance width="600"/>
	<outline>
		<component base="istroke.d"/>
		<component base="dotaccentcmb" xOffset="-20"/>
		<contour>
			<point name="baseLC" x="336" y="0" type="move"/>
		</contour>
		<contour>
			<point name="belowLC" x="304" y="-20" type="move"/>
		</contour>
	</outline>
</glyph>
<glyph name="mturned" format="1">
	<unicode hex="026F"/>
	<advance width="600"/>
	<outline>
		<component base="m" xScale="-1" yScale="-1" xOffset="580" yOffset="500"/>
		<contour>
			<point name="aboveLC" x="340" y="520" type="move"/>
		</contour>
		<contour>
			<point name="belowLC" x="240" y="-20" type="move"/>
		</contour>
	</outline>
</glyph>
<glyph name="mhook" format="2">
	<unicode hex="0271"/>
	<advance width="600"/>
	<outline>
		<contour>
			<point x="337" y="-188" type="curve" smooth="yes"/>
			<point x="446" y="-188"/>
			<point x="490" y="-110"/>
			<point x="513" y="4" type="curve" smooth="yes"/>
			<point x="588" y="372" type="line" smooth="yes"/>
			<point x="592" y="391"/>
			<point x="594" y="404"/>
			<point x="594" y="422" type="curve" smooth="yes"/>
			<point x="594" y="480"/>
			<point x="564" y="512"/>
			<point x="516" y="512" type="curve" smooth="yes"/>
			<point x="458" y="512"/>
			<point x="410" y="483"/>
			<point x="378" y="428" type="curve"/>
			<point x="389" y="434" type="line"/>
			<point x="385" y="487"/>
			<point x="363" y="512"/>
			<point x="320" y="512" type="curve" smooth="yes"/>
			<point x="260" y="512"/>
			<point x="215" y="475"/>
			<point x="188" y="436" type="curve"/>
			<point x="184" y="436" type="line"/>
			<point x="184" y="500" type="line"/>
			<point x="70" y="500" type="line"/>
			<point x="-28" y="0" type="line"/>
			<point x="120" y="0" type="line"/>
			<point x="184" y="334" type="line"/>
			<point x="201" y="365"/>
			<point x="218" y="376"/>
			<point x="236" y="376" type="curve" smooth="yes"/>
			<point x="247" y="376"/>
			<point x="254" y="372"/>
			<point x="254" y="358" type="curve" smooth="yes"/>
			<point x="254" y="354"/>
			<point x="254" y="350"/>
			<point x="252" y="340" type="curve" smooth="yes"/>
			<point x="181" y="0" type="line"/>
			<point x="305" y="0" type="line"/>
			<point x="374" y="335" type="line"/>
			<point x="390" y="364"/>
			<point x="404" y="376"/>
			<point x="422" y="376" type="curve" smooth="yes"/>
			<point x="432" y="376"/>
			<point x="438" y="372"/>
			<point x="438" y="358" type="curve" smooth="yes"/>
			<point x="438" y="354"/>
			<point x="438" y="350"/>
			<point x="436" y="340" type="curve" smooth="yes"/>
			<point x="370" y="18" type="line" smooth="yes"/>
			<point x="358" y="-40"/>
			<point x="348" y="-62"/>
			<point x="319" y="-62" type="curve" smooth="yes"/>
			<point x="310" y="-62"/>
			<point x="300" y="-60"/>
			<point x="290" y="-54" type="curve"/>
			<point x="242" y="-168" type="line"/>
			<point x="274" y="-184"/>
			<point x="304" y="-188"/>
		</contour>
	</outline>
	<anchor name="aboveLC" x="350" y="520"/>
</glyph>
<glyph name="nsmall" format="1">
	<unicode hex="0274"/>
	<advance width="600"/>
	<outline>
		<contour>
			<point x="16" y="0" type="line"/>
			<point x="168" y="0" type="line"/>
			<point x="190" y="114" type="line" smooth="yes"/>
			<point x="200" y="164"/>
			<point x="206" y="226"/>
			<point x="210" y="288" type="curve"/>
			<point x="214" y="288" type="line"/>
			<point x="222" y="258"/>
			<point x="236" y="212"/>
			<point x="246" y="184" type="curve" smooth="yes"/>
			<point x="310" y="0" type="line"/>
			<point x="462" y="0" type="line"/>
			<point x="560" y="500" type="line"/>
			<point x="408" y="500" type="line"/>
			<point x="386" y="386" type="line" smooth="yes"/>
			<point x="376" y="336"/>
			<point x="370" y="274"/>
			<point x="366" y="212" type="curve"/>
			<point x="362" y="212" type="line"/>
			<point x="354" y="242"/>
			<point x="339" y="288"/>
			<point x="330" y="316" type="curve" smooth="yes"/>
			<point x="266" y="500" type="line"/>
			<point x="114" y="500" type="line"/>
		</contour>
		<contour>
			<point name="aboveLC" x="330" y="520" type="move"/>
		</contour>
		<contour>
			<point name="belowLC" x="250" y="-20" type="move"/>
		</contour>
	</outline>
</glyph>
<glyph name="oesmall" format="1">
	<unicode hex="0276"/>
	<advance width="600"/>
	<outline>
		<contour>
			<point x="190" y="-12" type="curve" smooth="yes"/>
			<point x="224" y="-12"/>
			<point x="250" y="-8"/>
			<point x="282" y="0" type="curve"/>
			<point x="528" y="0" type="line"/>
			<point x="550" y="112" type="line"/>
			<point x="394" y="112" type="line"/>
			<point x="412" y="204" type="line"/>
			<point x="532" y="204" type="line"/>
			<point x="550" y="304" type="line"/>
			<point x="432" y="304" type="line"/>
			<point x="448" y="388" type="line"/>
			<point x="595" y="388" type="line"/>
			<point x="618" y="500" type="line"/>
			<point x="382" y="500" type="line"/>
			<point x="342" y="508"/>
			<point x="308" y="512"/>
			<point x="270" y="512" type="curve" smooth="yes"/>
			<point x="128" y="512"/>
			<point x="0" y="376"/>
			<point x="0" y="188" type="curve" smooth="yes"/>
			<point x="0" y="50"/>
			<point x="94" y="-12"/>
		</contour>
		<contour>
			<point x="218" y="118" type="curve" smooth="yes"/>
			<point x="188" y="118"/>
			<point x="162" y="134"/>
			<point x="162" y="198" type="curve" smooth="yes"/>
			<point x="162" y="294"/>
			<point x="212" y="382"/>
			<point x="267" y="382" type="curve" smooth="yes"/>
			<point x="279" y="382"/>
			<point x="288" y="380"/>
			<point x="296" y="378" type="curve"/>
			<point x="246" y="124" type="line"/>
			<point x="236" y="120"/>
			<point x="228" y="118"/>
		</contour>
		<contour>
			<point name="aboveLC" x="370" y="520" type="move"/>
		</contour>
		<contour>
			<point name="belowLC" x="290" y="-20" type="move"/>
		</contour>
	</outline>
</glyph>
<glyph name="rsmallinverted" format="2">
	<unicode hex="0281"/>
	<advance width="600"/>
	<outline>
		<contour>
			<point x="34" y="0" type="line"/>
			<point x="260" y="0" type="line" smooth="yes"/>
			<point x="394" y="0"/>
			<point x="508" y="86"/>
			<point x="508" y="210" type="curve" smooth="yes"/>
			<point x="508" y="308"/>
			<point x="432" y="350"/>
			<point x="334" y="350" type="curve" smooth="yes"/>
			<point x="264" y="350" type="line"/>
			<point x="292" y="500" type="line"/>
			<point x="132" y="500" type="line"/>
		</contour>
		<contour>
			<point x="218" y="122" type="line"/>
			<point x="240" y="236" type="line"/>
			<point x="290" y="236" type="line" smooth="yes"/>
			<point x="326" y="237"/>
			<point x="342" y="220"/>
			<point x="342" y="186" type="curve" smooth="yes"/>
			<point x="342" y="154"/>
			<point x="314" y="122"/>
			<point x="268" y="122" type="curve" smooth="yes"/>
		</contour>
		<contour>
			<point x="398" y="258" type="line"/>
			<point x="592" y="500" type="line"/>
			<point x="430" y="500" type="line"/>
			<point x="290" y="304" type="line"/>
		</contour>
	</outline>
	<anchor name="aboveLC" x="360" y="520"/>
	<anchor name="belowLC" x="250" y="-20"/>
</glyph>
<glyph name="tturned" format="1">
	<unicode hex="0287"/>
	<advance width="600"/>
	<outline>
		<component base="t" xScale="-1" yScale="-1" xOffset="580" yOffset="500"/>
		<contour>
			<point name="aboveLC" x="300" y="520" type="move"/>
		</contour>
		<contour>
			<point name="belowLC" x="260" y="-150" type="move"/>
		</contour>
	</outline>
</glyph>
<glyph name="wturned" format="1">
	<unicode hex="028D"/>
	<advance width="600"/>
	<outline>
		<component base="w" xScale="-1" yScale="-1" xOffset="580" yOffset="500"/>
		<contour>
			<point name="aboveLC" x="340" y="520" type="move"/>
		</contour>
		<contour>
			<point name="belowLC" x="240" y="-20" type="move"/>
		</contour>
	</outline>
</glyph>
<glyph name="ysmall" format="2">
	<unicode hex="028F"/>
	<advance width="600"/>
	<outline>
		<contour>
			<point x="159" y="0" type="line"/>
			<point x="324" y="0" type="line"/>
			<point x="353" y="144" type="line"/>
			<point x="613" y="500" type="line"/>
			<point x="442" y="500" type="line"/>
			<point x="382" y="404" type="line"/>
			<point x="361" y="363"/>
			<point x="321" y="327"/>
			<point x="300" y="284" type="curve"/>
			<point x="296" y="284" type="line"/>
			<point x="292" y="327"/>
			<point x="267" y="363"/>
			<point x="264" y="404" type="curve"/>
			<point x="240" y="500" type="line"/>
			<point x="67" y="500" type="line"/>
			<point x="187" y="144" type="line"/>
		</contour>
	</outline>
	<anchor name="aboveLC" x="340" y="520"/>
	<anchor name="belowLC" x="235" y="-20"/>
</glyph>
<glyph name="glottalstop" format="2">
	<unicode hex="0294"/>
	<advance width="600"/>
	<outline>
		<contour>
			<point x="138" y="0" type="line"/>
			<point x="298" y="0" type="line"/>
			<point x="348" y="256" type="line"/>
			<point x="484" y="334"/>
			<point x="568" y="418"/>
			<point x="568" y="530" type="curve" smooth="yes"/>
			<point x="568" y="648"/>
			<point x="470" y="708"/>
			<point x="356" y="708" type="curve" smooth="yes"/>
			<point x="254" y="708"/>
			<point x="194" y="680"/>
			<point x="120" y="628" type="curve"/>
			<point x="182" y="520" type="line"/>
			<point x="240" y="560"/>
			<point x="280" y="582"/>
			<point x="328" y="582" type="curve" smooth="yes"/>
			<point x="374" y="582"/>
			<point x="402" y="558"/>
			<point x="402" y="512" type="curve" smooth="yes"/>
			<point x="402" y="454"/>
			<point x="366" y="394"/>
			<point x="202" y="314" type="curve"/>
		</contour>
	</outline>
	<anchor name="aboveUC" x="380" y="730"/>
	<anchor name="belowLC" x="220" y="-20"/>
</glyph>
<glyph name="kturned" format="1">
	<unicode hex="029E"/>
	<advance width="600"/>
	<outline>
		<contour>
			<point x="274" y="-176" type="line"/>
			<point x="434" y="-176" type="line"/>
			<point x="570" y="500" type="line"/>
			<point x="410" y="500" type="line"/>
			<point x="388" y="386" type="line"/>
			<point x="234" y="254" type="line"/>
			<point x="-38" y="0" type="line"/>
			<point x="146" y="0" type="line"/>
			<point x="344" y="184" type="line"/>
			<point x="348" y="184" type="line"/>
		</contour>
		<contour>
			<point x="202" y="172" type="line"/>
			<point x="304" y="282" type="line"/>
			<point x="212" y="500" type="line"/>
			<point x="50" y="500" type="line"/>
		</contour>
		<contour>
			<point name="aboveLC" x="320" y="520" type="move"/>
		</contour>
		<contour>
			<point name="belowLC" x="350" y="-200" type="move"/>
		</contour>
	</outline>
</glyph>
<glyph name="glottalstopstroke" format="1">
	<unicode hex="02A1"/>
	<advance width="600"/>
	<outline>
		<contour>
			<point x="138" y="0" type="line"/>
			<point x="298" y="0" type="line"/>
			<point x="344" y="234" type="line"/>
			<point x="508" y="234" type="line"/>
			<point x="524" y="310" type="line"/>
			<point x="406" y="310" type="line"/>
			<point x="502" y="372"/>
			<point x="568" y="443"/>
			<point x="568" y="530" type="curve" smooth="yes"/>
			<point x="568" y="648"/>
			<point x="470" y="708"/>
			<point x="356" y="708" type="curve" smooth="yes"/>
			<point x="254" y="708"/>
			<point x="194" y="680"/>
			<point x="120" y="628" type="curve"/>
			<point x="182" y="520" type="line"/>
			<point x="240" y="560"/>
			<point x="280" y="582"/>
			<point x="328" y="582" type="curve" smooth="yes"/>
			<point x="374" y="582"/>
			<point x="402" y="558"/>
			<point x="402" y="512" type="curve" smooth="yes"/>
			<point x="402" y="454"/>
			<point x="364" y="392"/>
			<point x="202" y="310" type="curve"/>
			<point x="78" y="304" type="line"/>
			<point x="64" y="234" type="line"/>
			<point x="185" y="234" type="line"/>
		</contour>
		<contour>
			<point name="aboveUC" x="380" y="730" type="move"/>
		</contour>
		<contour>
			<point name="belowLC" x="220" y="-20" type="move"/>
		</contour>
	</outline>
</glyph>
<glyph name="brevecmb" format="1">
	<unicode hex="0306"/>
	<advance width="600"/>
	<outline>
		<contour>
			<point x="354" y="572" type="curve" smooth="yes"/>
			<point x="472" y="572"/>
			<point x="538" y="638"/>
			<point x="556" y="732" type="curve"/>
			<point x="464" y="748" type="line"/>
			<point x="450" y="708"/>
			<point x="422" y="678"/>
			<point x="374" y="678" type="curve" smooth="yes"/>
			<point x="326" y="678"/>
			<point x="306" y="708"/>
			<point x="308" y="748" type="curve"/>
			<point x="208" y="732" type="line"/>
			<point x="194" y="638"/>
			<point x="237" y="572"/>
		</contour>
		<contour>
			<point name="_aboveLC" x="340" y="520" type="move"/>
		</contour>
		<contour>
			<point name="aboveLC" x="300" y="520" type="move"/>
		</contour>
	</outline>
</glyph>
<glyph name="candrabinducmb" format="1">
	<unicode hex="0310"/>
	<advance width="600"/>
	<outline>
		<contour>
			<point x="352" y="572" type="curve" smooth="yes"/>
			<point x="482" y="572"/>
			<point x="556" y="638"/>
			<point x="576" y="732" type="curve"/>
			<point x="494" y="748" type="line"/>
			<point x="478" y="702"/>
			<point x="434" y="668"/>
			<point x="370" y="668" type="curve" smooth="yes"/>
			<point x="308" y="668"/>
			<point x="286" y="702"/>
			<point x="288" y="748" type="curve"/>
			<point x="200" y="732" type="line"/>
			<point x="184" y="638"/>
			<point x="228" y="572"/>
		</contour>
		<contour>
			<point x="384" y="702" type="curve" smooth="yes"/>
			<point x="434" y="702"/>
			<point x="480" y="746"/>
			<point x="480" y="798" type="curve" smooth="yes"/>
			<point x="480" y="844"/>
			<point x="446" y="864"/>
			<point x="408" y="864" type="curve" smooth="yes"/>
			<point x="358" y="864"/>
			<point x="312" y="820"/>
			<point x="312" y="768" type="curve" smooth="yes"/>
			<point x="312" y="722"/>
			<point x="346" y="702"/>
		</contour>
		<contour>
			<point name="_aboveLC" x="340" y="520" type="move"/>
		</contour>
	</outline>
</glyph>
<glyph name="lefttackbelowcmb" format="1">
	<unicode hex="0318"/>
	<advance width="600"/>
	<outline>
		<contour>
			<point x="201" y="-260" type="line"/>
			<point x="286" y="-260" type="line"/>
			<point x="327" y="-52" type="line"/>
			<point x="243" y="-52" type="line"/>
			<point x="230" y="-116" type="line"/>
			<point x="127" y="-116" type="line"/>
			<point x="111" y="-196" type="line"/>
			<point x="214" y="-196" type="line"/>
		</contour>
		<contour>
			<point name="_belowLC" x="234" y="-20" type="move"/>
		</contour>
	</outline>
</glyph>
<glyph name="ringhalfleftbelowcmb" format="1">
	<unicode hex="031C"/>
	<advance width="600"/>
	<outline>
		<contour>
			<point x="254" y="-258" type="curve"/>
			<point x="266" y="-198" type="line"/>
			<point x="234" y="-198"/>
			<point x="220" y="-180"/>
			<point x="220" y="-158" type="curve" smooth="yes"/>
			<point x="220" y="-134"/>
			<point x="240" y="-112"/>
			<point x="282" y="-110" type="curve"/>
			<point x="294" y="-50" type="line"/>
			<point x="180" y="-50"/>
			<point x="120" y="-100"/>
			<point x="120" y="-166" type="curve" smooth="yes"/>
			<point x="120" y="-224"/>
			<point x="170" y="-262"/>
		</contour>
		<contour>
			<point name="_belowLC" x="234" y="-20" type="move"/>
		</contour>
	</outline>
</glyph>
<glyph name="verticallinebelowcmb" format="2">
	<unicode hex="0329"/>
	<advance width="600"/>
	<outline>
		<contour>
			<point x="122" y="-270" type="line"/>
			<point x="250" y="-270" type="line"/>
			<point x="280" y="-62" type="line"/>
			<point x="172" y="-62" type="line"/>
		</contour>
	</outline>
	<anchor name="_belowLC" x="234" y="-20"/>
</glyph>
<glyph name="bridgebelowcmb" format="1">
	<unicode hex="032A"/>
	<advance width="600"/>
	<outline>
		<contour>
			<point x="72" y="-218" type="line"/>
			<point x="150" y="-218" type="line"/>
			<point x="163" y="-156" type="line"/>
			<point x="255" y="-156" type="line"/>
			<point x="243" y="-218" type="line"/>
			<point x="321" y="-218" type="line"/>
			<point x="350" y="-76" type="line"/>
			<point x="100" y="-76" type="line"/>
		</contour>
		<contour>
			<point name="_belowLC" x="234" y="-20" type="move"/>
		</contour>
	</outline>
</glyph>
<glyph name="macronbelowcmb" format="1">
	<unicode hex="0331"/>
	<advance width="600"/>
	<outline>
		<component base="macroncmb" xOffset="-158" yOffset="-784"/>
		<contour>
			<point name="_belowLC" x="234" y="-20" type="move"/>
		</contour>
	</outline>
</glyph>
<glyph name="a.sups" format="2">
	<unicode hex="1D43"/>
	<advance width="600"/>
	<outline>
		<contour>
			<point x="264" y="360" type="curve" smooth="yes"/>
			<point x="310" y="360"/>
			<point x="346" y="380"/>
			<point x="373" y="402" type="curve"/>
			<point x="376" y="402" type="line"/>
			<point x="378" y="368" type="line"/>
			<point x="468" y="368" type="line"/>
			<point x="533" y="698" type="line"/>
			<point x="448" y="698" type="line"/>
			<point x="432" y="665" type="line"/>
			<point x="429" y="665" type="line"/>
			<point x="409" y="693"/>
			<point x="382" y="706"/>
			<point x="350" y="706" type="curve" smooth="yes"/>
			<point x="253" y="706"/>
			<point x="166" y="623"/>
			<point x="166" y="490" type="curve" smooth="yes"/>
			<point x="166" y="401"/>
			<point x="205" y="360"/>
		</contour>
		<contour>
			<point x="322" y="449" type="curve" smooth="yes"/>
			<point x="297" y="449"/>
			<point x="281" y="464"/>
			<point x="281" y="503" type="curve" smooth="yes"/>
			<point x="281" y="576"/>
			<point x="320" y="616"/>
			<point x="356" y="616" type="curve" smooth="yes"/>
			<point x="378" y="616"/>
			<point x="391" y="608"/>
			<point x="402" y="597" type="curve"/>
			<point x="379" y="475" type="line"/>
			<point x="362" y="458"/>
			<point x="341" y="449"/>
		</contour>
	</outline>
</glyph>
<glyph name="b.sups" format="2">
	<unicode hex="1D47"/>
	<advance width="600"/>
	<outline>
		<contour>
			<point x="353" y="360" type="curve" smooth="yes"/>
			<point x="439" y="360"/>
			<point x="528" y="431"/>
			<point x="528" y="576" type="curve" smooth="yes"/>
			<point x="528" y="655"/>
			<point x="491" y="706"/>
			<point x="423" y="706" type="curve" smooth="yes"/>
			<point x="389" y="706"/>
			<point x="355" y="692"/>
			<point x="327" y="668" type="curve"/>
			<point x="342" y="719" type="line"/>
			<point x="363" y="828" type="line"/>
			<point x="253" y="828" type="line"/>
			<point x="161" y="368" type="line"/>
			<point x="247" y="368" type="line"/>
			<point x="264" y="403" type="line"/>
			<point x="266" y="403" type="line"/>
			<point x="284" y="375"/>
			<point x="314" y="360"/>
		</contour>
		<contour>
			<point x="336" y="449" type="curve" smooth="yes"/>
			<point x="320" y="449"/>
			<point x="304" y="453"/>
			<point x="291" y="466" type="curve"/>
			<point x="316" y="591" type="line"/>
			<point x="337" y="609"/>
			<point x="355" y="616"/>
			<point x="376" y="616" type="curve" smooth="yes"/>
			<point x="397" y="616"/>
			<point x="413" y="601"/>
			<point x="413" y="562" type="curve" smooth="yes"/>
			<point x="413" y="487"/>
			<point x="378" y="449"/>
		</contour>
	</outline>
</glyph>
<glyph name="z.sups" format="2">
	<unicode hex="1DBB"/>
	<advance width="600"/>
	<outline>
		<contour>
			<point x="161" y="368" type="line"/>
			<point x="466" y="368" type="line"/>
			<point x="483" y="453" type="line"/>
			<point x="309" y="453" type="line"/>
			<point x="315" y="440" type="line"/>
			<point x="513" y="634" type="line"/>
			<point x="526" y="698" type="line"/>
			<point x="236" y="698" type="line"/>
			<point x="218" y="613" type="line"/>
			<point x="378" y="613" type="line"/>
			<point x="370" y="624" type="line"/>
			<point x="175" y="431" type="line"/>
		</contour>
	</outline>
</glyph>
<glyph name="endash" format="1">
	<unicode hex="2013"/>
	<advance width="600"/>
	<outline>
		<contour>
			<point x="58" y="196" type="line"/>
			<point x="498" y="196" type="line"/>
			<point x="522" y="312" type="line"/>
			<point x="82" y="312" type="line"/>
		</contour>
	</outline>
</glyph>
<glyph name="quotereversed" format="1">
	<unicode hex="201B"/>
	<advance width="600"/>
	<outline>
		<contour>
			<point x="384" y="300" type="curve"/>
			<point x="434" y="370" type="line"/>
			<point x="346" y="410"/>
			<point x="309" y="446"/>
			<point x="309" y="492" type="curve"/>
			<point x="315" y="528" type="line"/>
			<point x="330" y="615" type="line"/>
			<point x="257" y="520" type="line"/>
			<point x="270" y="505"/>
			<point x="296" y="486"/>
			<point x="332" y="486" type="curve" smooth="yes"/>
			<point x="394" y="486"/>
			<point x="442" y="542"/>
			<point x="442" y="600" type="curve" smooth="yes"/>
			<point x="442" y="658"/>
			<point x="398" y="696"/>
			<point x="342" y="696" type="curve" smooth="yes"/>
			<point x="266" y="696"/>
			<point x="196" y="628"/>
			<point x="196" y="520" type="curve" smooth="yes"/>
			<point x="196" y="426"/>
			<point x="272" y="342"/>
		</contour>
	</outline>
</glyph>
<glyph name="interrobang" format="1">
	<unicode hex="203D"/>
	<advance width="600"/>
	<outline>
		<contour>
			<point x="228" y="264" type="curve"/>
			<point x="336" y="264" type="line"/>
			<point x="358" y="338"/>
			<point x="550" y="360"/>
			<point x="550" y="532" type="curve" smooth="yes"/>
			<point x="550" y="633"/>
			<point x="440" y="682"/>
			<point x="348" y="682" type="curve" smooth="yes"/>
			<point x="252" y="682"/>
			<point x="170" y="646"/>
			<point x="116" y="580" type="curve"/>
			<point x="198" y="502" type="line"/>
			<point x="234" y="536"/>
			<point x="270" y="554"/>
			<point x="318" y="554" type="curve" smooth="yes"/>
			<point x="359" y="554"/>
			<point x="390" y="534"/>
			<point x="390" y="496" type="curve" smooth="yes"/>
			<point x="390" y="378"/>
			<point x="244" y="380"/>
		</contour>
		<contour>
			<point x="220" y="264" type="line"/>
			<point x="308" y="264" type="line"/>
			<point x="337" y="402" type="line"/>
			<point x="356" y="500" type="line"/>
			<point x="232" y="500" type="line"/>
			<point x="225" y="402" type="line"/>
		</contour>
		<contour>
			<point x="234" y="-12" type="curve" smooth="yes"/>
			<point x="304" y="-12"/>
			<point x="352" y="42"/>
			<point x="352" y="108" type="curve" smooth="yes"/>
			<point x="352" y="160"/>
			<point x="316" y="198"/>
			<point x="266" y="198" type="curve" smooth="yes"/>
			<point x="196" y="198"/>
			<point x="148" y="144"/>
			<point x="148" y="78" type="curve" smooth="yes"/>
			<point x="148" y="26"/>
			<point x="184" y="-12"/>
		</contour>
	</outline>
</glyph>
<glyph name="questiondbl" format="1">
	<unicode hex="2047"/>
	<advance width="600"/>
	<outline>
		<contour>
			<point x="68" y="264" type="curve"/>
			<point x="200" y="264" type="line"/>
			<point x="208" y="384"/>
			<point x="360" y="426"/>
			<point x="360" y="556" type="curve" smooth="yes"/>
			<point x="360" y="643"/>
			<point x="290" y="682"/>
			<point x="208" y="682" type="curve" smooth="yes"/>
			<point x="165" y="682"/>
			<point x="113" y="668"/>
			<point x="70" y="634" type="curve"/>
			<point x="126" y="532" type="line"/>
			<point x="144" y="548"/>
			<point x="160" y="554"/>
			<point x="174" y="554" type="curve" smooth="yes"/>
			<point x="190" y="554"/>
			<point x="200" y="542"/>
			<point x="200" y="524" type="curve" smooth="yes"/>
			<point x="200" y="444"/>
			<point x="77" y="407"/>
		</contour>
		<contour>
			<point x="94" y="-12" type="curve" smooth="yes"/>
			<point x="164" y="-12"/>
			<point x="212" y="42"/>
			<point x="212" y="108" type="curve" smooth="yes"/>
			<point x="212" y="160"/>
			<point x="176" y="198"/>
			<point x="126" y="198" type="curve" smooth="yes"/>
			<point x="56" y="198"/>
			<point x="8" y="144"/>
			<point x="8" y="78" type="curve" smooth="yes"/>
			<point x="8" y="26"/>
			<point x="44" y="-12"/>
		</contour>
		<contour>
			<point x="348" y="264" type="curve"/>
			<point x="480" y="264" type="line"/>
			<point x="488" y="384"/>
			<point x="640" y="426"/>
			<point x="640" y="556" type="curve" smooth="yes"/>
			<point x="640" y="643"/>
			<point x="570" y="682"/>
			<point x="488" y="682" type="curve" smooth="yes"/>
			<point x="445" y="682"/>
			<point x="393" y="668"/>
			<point x="350" y="634" type="curve"/>
			<point x="406" y="532" type="line"/>
			<point x="424" y="548"/>
			<point x="440" y="554"/>
			<point x="454" y="554" type="curve" smooth="yes"/>
			<point x="470" y="554"/>
			<point x="480" y="542"/>
			<point x="480" y="524" type="curve" smooth="yes"/>
			<point x="480" y="444"/>
			<point x="357" y="407"/>
		</contour>
		<contour>
			<point x="374" y="-12" type="curve" smooth="yes"/>
			<point x="444" y="-12"/>
			<point x="492" y="42"/>
			<point x="492" y="108" type="curve" smooth="yes"/>
			<point x="492" y="160"/>
			<point x="456" y="198"/>
			<point x="406" y="198" type="curve" smooth="yes"/>
			<point x="336" y="198"/>
			<point x="288" y="144"/>
			<point x="288" y="78" type="curve" smooth="yes"/>
			<point x="288" y="26"/>
			<point x="324" y="-12"/>
		</contour>
	</outline>
</glyph>
<glyph name="Euro" format="1">
	<unicode hex="20AC"/>
	<advance width="600"/>
	<outline>
		<contour>
			<point x="310" y="-12" type="curve" smooth="yes"/>
			<point x="398" y="-12"/>
			<point x="478" y="16"/>
			<point x="544" y="75" type="curve"/>
			<point x="473" y="177" type="line"/>
			<point x="436" y="147"/>
			<point x="393" y="121"/>
			<point x="342" y="121" type="curve" smooth="yes"/>
			<point x="285" y="121"/>
			<point x="252" y="160"/>
			<point x="252" y="250" type="curve" smooth="yes"/>
			<point x="252" y="390"/>
			<point x="322" y="520"/>
			<point x="422" y="520" type="curve" smooth="yes"/>
			<point x="468" y="520"/>
			<point x="494" y="500"/>
			<point x="517" y="470" type="curve"/>
			<point x="616" y="552" type="line"/>
			<point x="580" y="604"/>
			<point x="526" y="646"/>
			<point x="438" y="646" type="curve" smooth="yes"/>
			<point x="243" y="646"/>
			<point x="90" y="498"/>
			<point x="90" y="237" type="curve" smooth="yes"/>
			<point x="90" y="75"/>
			<point x="181" y="-12"/>
		</contour>
		<contour>
			<point x="42" y="338" type="line"/>
			<point x="480" y="338" type="line"/>
			<point x="495" y="417" type="line"/>
			<point x="133" y="417" type="line"/>
			<point x="57" y="411" type="line"/>
		</contour>
		<contour>
			<point x="17" y="212" type="line"/>
			<point x="414" y="212" type="line"/>
			<point x="430" y="291" type="line"/>
			<point x="107" y="291" type="line"/>
			<point x="32" y="285" type="line"/>
		</contour>
	</outline>
</glyph>
<glyph name="rupeeindian" format="1">
	<unicode hex="20B9"/>
	<advance width="600"/>
	<outline>
		<contour>
			<point x="63" y="197" type="line"/>
			<point x="151" y="197" type="line" smooth="yes"/>
			<point x="325" y="197"/>
			<point x="478" y="275"/>
			<point x="478" y="439" type="curve" smooth="yes"/>
			<point x="478" y="492"/>
			<point x="452" y="539"/>
			<point x="414" y="556" type="curve"/>
			<point x="575" y="556" type="line"/>
			<point x="590" y="635" type="line"/>
			<point x="152" y="635" type="line"/>
			<point x="127" y="509" type="line"/>
			<point x="208" y="509" type="line" smooth="yes"/>
			<point x="286" y="509"/>
			<point x="323" y="491"/>
			<point x="323" y="438" type="curve" smooth="yes"/>
			<point x="323" y="355"/>
			<point x="264" y="318"/>
			<point x="161" y="318" type="curve" smooth="yes"/>
			<point x="89" y="318" type="line"/>
		</contour>
		<contour>
			<point x="101" y="381" type="line"/>
			<point x="540" y="381" type="line"/>
			<point x="555" y="459" type="line"/>
			<point x="189" y="459" type="line"/>
			<point x="115" y="449" type="line"/>
		</contour>
		<contour>
			<point x="268" y="0" type="line"/>
			<point x="444" y="0" type="line"/>
			<point x="250" y="302" type="line"/>
			<point x="128" y="225" type="line"/>
		</contour>
	</outline>
</glyph>
<glyph name="careof" format="1">
	<unicode hex="2105"/>
	<advance width="600"/>
	<outline>
		<contour>
			<point x="125" y="310" type="curve" smooth="yes"/>
			<point x="158" y="310"/>
			<point x="196" y="322"/>
			<point x="230" y="342" type="curve"/>
			<point x="200" y="410" type="line"/>
			<point x="182" y="400"/>
			<point x="166" y="392"/>
			<point x="148" y="392" type="curve" smooth="yes"/>
			<point x="124" y="392"/>
			<point x="100" y="410"/>
			<point x="100" y="451" type="curve" smooth="yes"/>
			<point x="100" y="510"/>
			<point x="132" y="560"/>
			<point x="170" y="560" type="curve" smooth="yes"/>
			<point x="187" y="560"/>
			<point x="200" y="554"/>
			<point x="214" y="536" type="curve"/>
			<point x="274" y="592" type="line"/>
			<point x="252" y="622"/>
			<point x="214" y="644"/>
			<point x="169" y="644" type="curve" smooth="yes"/>
			<point x="74" y="644"/>
			<point x="-10" y="554"/>
			<point x="-10" y="446" type="curve" smooth="yes"/>
			<point x="-10" y="348"/>
			<point x="64" y="310"/>
		</contour>
		<component base="fraction" xOffset="1"/>
		<component base="zero.dnom" xOffset="125"/>
	</outline>
</glyph>
<glyph name="numero" format="1">
	<unicode hex="2116"/>
	<advance width="600"/>
	<outline>
		<contour>
			<point x="-58" y="-12" type="curve" smooth="yes"/>
			<point x="15" y="-12"/>
			<point x="57" y="40"/>
			<point x="75" y="132" type="curve" smooth="yes"/>
			<point x="85" y="184" type="line" smooth="yes"/>
			<point x="95" y="237"/>
			<point x="107" y="334"/>
			<point x="115" y="452" type="curve"/>
			<point x="119" y="452" type="line"/>
			<point x="123" y="354" type="line" smooth="yes"/>
			<point x="138" y="0" type="line"/>
			<point x="289" y="0" type="line"/>
			<point x="383" y="472" type="line" smooth="yes"/>
			<point x="391" y="510"/>
			<point x="400" y="518"/>
			<point x="421" y="518" type="curve"/>
			<point x="437" y="642" type="line"/>
			<point x="425" y="645"/>
			<point x="412" y="646"/>
			<point x="400" y="646" type="curve" smooth="yes"/>
			<point x="327" y="646"/>
			<point x="285" y="594"/>
			<point x="267" y="502" type="curve" smooth="yes"/>
			<point x="257" y="450" type="line" smooth="yes"/>
			<point x="247" y="397"/>
			<point x="235" y="300"/>
			<point x="227" y="182" type="curve"/>
			<point x="223" y="182" type="line"/>
			<point x="219" y="280" type="line" smooth="yes"/>
			<point x="204" y="634" type="line"/>
			<point x="53" y="634" type="line"/>
			<point x="-41" y="162" type="line" smooth="yes"/>
			<point x="-49" y="124"/>
			<point x="-58" y="116"/>
			<point x="-79" y="116" type="curve"/>
			<point x="-95" y="-8" type="line"/>
			<point x="-83" y="-11"/>
			<point x="-70" y="-12"/>
		</contour>
		<contour>
			<point x="501" y="266" type="curve" smooth="yes"/>
			<point x="595" y="266"/>
			<point x="665" y="366"/>
			<point x="665" y="492" type="curve" smooth="yes"/>
			<point x="665" y="572"/>
			<point x="623" y="606"/>
			<point x="569" y="606" type="curve" smooth="yes"/>
			<point x="475" y="606"/>
			<point x="405" y="506"/>
			<point x="405" y="380" type="curve" smooth="yes"/>
			<point x="405" y="300"/>
			<point x="447" y="266"/>
		</contour>
		<contour>
			<point x="523" y="360" type="curve" smooth="yes"/>
			<point x="508" y="360"/>
			<point x="501" y="367"/>
			<point x="501" y="394" type="curve" smooth="yes"/>
			<point x="501" y="447"/>
			<point x="523" y="512"/>
			<point x="547" y="512" type="curve" smooth="yes"/>
			<point x="562" y="512"/>
			<point x="569" y="505"/>
			<point x="569" y="478" type="curve" smooth="yes"/>
			<point x="569" y="424"/>
			<point x="547" y="360"/>
		</contour>
		<contour>
			<point x="387" y="142" type="line"/>
			<point x="567" y="142" type="line"/>
			<point x="583" y="226" type="line"/>
			<point x="403" y="226" type="line"/>
		</contour>
	</outline>
</glyph>
<glyph name="trademark" format="1">
	<unicode hex="2122"/>
	<advance width="600"/>
	<outline>
		<contour>
			<point x="85" y="361" type="line"/>
			<point x="183" y="361" type="line"/>
			<point x="231" y="601" type="line"/>
			<point x="134" y="601" type="line"/>
		</contour>
		<contour>
			<point x="274" y="361" type="line"/>
			<point x="363" y="361" type="line"/>
			<point x="381" y="450" type="line"/>
			<point x="394" y="568" type="line"/>
			<point x="398" y="568" type="line"/>
			<point x="416" y="425" type="line"/>
			<point x="477" y="425" type="line"/>
			<point x="552" y="568" type="line"/>
			<point x="556" y="568" type="line"/>
			<point x="521" y="450" type="line"/>
			<point x="504" y="361" type="line"/>
			<point x="593" y="361" type="line"/>
			<point x="656" y="676" type="line"/>
			<point x="547" y="676" type="line"/>
			<point x="500" y="586" type="line"/>
			<point x="467" y="516" type="line"/>
			<point x="463" y="516" type="line"/>
			<point x="457" y="586" type="line"/>
			<point x="446" y="676" type="line"/>
			<point x="337" y="676" type="line"/>
		</contour>
		<contour>
			<point x="63" y="593" type="line"/>
			<point x="297" y="593" type="line"/>
			<point x="313" y="676" type="line"/>
			<point x="81" y="676" type="line"/>
		</contour>
	</outline>
</glyph>
<glyph name="arrowup" format="1">
	<unicode hex="2191"/>
	<advance width="600"/>
	<outline>
		<contour>
			<point x="236" y="-26" type="line"/>
			<point x="364" y="-26" type="line"/>
			<point x="364" y="314" type="line"/>
			<point x="483" y="175" type="line"/>
			<point x="570" y="251" type="line"/>
			<point x="302" y="530" type="line"/>
			<point x="298" y="530" type="line"/>
			<point x="30" y="251" type="line"/>
			<point x="117" y="175" type="line"/>
			<point x="236" y="314" type="line"/>
		</contour>
	</outline>
</glyph>
<glyph name="arrowupright" format="2">
	<unicode hex="2197"/>
	<advance width="600"/>
	<outline>
		<contour>
			<point x="149" y="10" type="line"/>
			<point x="389" y="251" type="line"/>
			<point x="376" y="68" type="line"/>
			<point x="490" y="61" type="line"/>
			<point x="498" y="447" type="line"/>
			<point x="495" y="450" type="line"/>
			<point x="109" y="442" type="line"/>
			<point x="116" y="328" type="line"/>
			<point x="299" y="341" type="line"/>
			<point x="58" y="101" type="line"/>
		</contour>
	</outline>
</glyph>
<glyph name="arrowdblright" format="2">
	<unicode hex="21D2"/>
	<advance width="600"/>
	<outline>
		<contour>
			<point x="308" y="-18" type="line"/>
			<point x="587" y="250" type="line"/>
			<point x="587" y="254" type="line"/>
			<point x="308" y="522" type="line"/>
			<point x="233" y="435" type="line"/>
			<point x="445" y="254" type="line"/>
			<point x="445" y="250" type="line"/>
			<point x="233" y="69" type="line"/>
		</contour>
		<contour>
			<point x="32" y="129" type="line"/>
			<point x="440" y="129" type="line"/>
			<point x="440" y="221" type="line"/>
			<point x="32" y="221" type="line"/>
		</contour>
		<contour>
			<point x="32" y="283" type="line"/>
			<point x="440" y="283" type="line"/>
			<point x="440" y="375" type="line"/>
			<point x="32" y="375" type="line"/>
		</contour>
	</outline>
</glyph>
<glyph name="existential" format="1">
	<unicode hex="2203"/>
	<advance width="600"/>
	<outline>
		<contour>
			<point x="-4" y="0" type="line"/>
			<point x="440" y="0" type="line"/>
			<point x="570" y="650" type="line"/>
			<point x="136" y="650" type="line"/>
			<point x="110" y="516" type="line"/>
			<point x="384" y="516" type="line"/>
			<point x="360" y="402" type="line"/>
			<point x="130" y="402" type="line"/>
			<point x="104" y="268" type="line"/>
			<point x="334" y="268" type="line"/>
			<point x="308" y="134" type="line"/>
			<point x="22" y="134" type="line"/>
		</contour>
	</outline>
</glyph>
<glyph name="summation" format="2">
	<unicode hex="2211"/>
	<advance width="600"/>
	<outline>
		<contour>
			<point x="48" y="-120" type="line"/>
			<point x="550" y="-120" type="line"/>
			<point x="550" y="14" type="line"/>
			<point x="244" y="14" type="line"/>
			<point x="244" y="18" type="line"/>
			<point x="410" y="258" type="line"/>
			<point x="250" y="496" type="line"/>
			<point x="250" y="500" type="line"/>
			<point x="528" y="500" type="line"/>
			<point x="528" y="634" type="line"/>
			<point x="58" y="634" type="line"/>
			<point x="58" y="540" type="line"/>
			<point x="250" y="256" type="line"/>
			<point x="48" y="-28" type="line"/>
		</contour>
	</outline>
</glyph>
<glyph name="minus" format="2">
	<unicode hex="2212"/>
	<advance width="600"/>
	<outline>
		<contour>
			<point x="67" y="274" type="line"/>
			<point x="533" y="274" type="line"/>
			<point x="533" y="386" type="line"/>
			<point x="67" y="386" type="line"/>
		</contour>
	</outline>
</glyph>
<glyph name="greaterequal" format="1">
	<unicode hex="2265"/>
	<advance width="600"/>
	<outline>
		<contour>
			<point x="67" y="0" type="line"/>
			<point x="533" y="0" type="line"/>
			<point x="533" y="113" type="line"/>
			<point x="67" y="113" type="line"/>
		</contour>
		<contour>
			<point x="67" y="154" type="line"/>
			<point x="533" y="294" type="line"/>
			<point x="533" y="425" type="line"/>
			<point x="67" y="565" type="line"/>
			<point x="67" y="434" type="line"/>
			<point x="231" y="393" type="line"/>
			<point x="371" y="362" type="line"/>
			<point x="371" y="358" type="line"/>
			<point x="231" y="326" type="line"/>
			<point x="67" y="285" type="line"/>
		</contour>
	</outline>
</glyph>
<glyph name="floorleft" format="1">
	<unicode hex="231E"/>
	<advance width="600"/>
	<outline>
		<contour>
			<point x="120" y="-58" type="line"/>
			<point x="418" y="-58" type="line"/>
			<point x="434" y="26" type="line"/>
			<point x="256" y="26" type="line"/>
			<point x="380" y="634" type="line"/>
			<point x="260" y="634" type="line"/>
		</contour>
	</outline>
</glyph>
<glyph name="dnsngrightdblbxd" format="1">
	<unicode hex="2552"/>
	<advance width="600"/>
	<outline>
		<contour>
			<point x="680" y="60" type="line"/>
			<point x="680" y="220" type="line"/>
			<point x="380" y="220" type="line"/>
			<point x="380" y="380" type="line"/>
			<point x="680" y="380" type="line"/>
			<point x="680" y="540" type="line"/>
			<point x="220" y="540" type="line"/>
			<point x="220" y="-400" type="line"/>
			<point x="380" y="-400" type="line"/>
			<point x="380" y="60" type="line"/>
		</contour>
	</outline>
</glyph>
<glyph name="lightdiagcrossbxd" format="2">
	<unicode hex="2573"/>
	<advance width="600"/>
	<outline>
		<contour>
			<point x="511" y="-300" type="line"/>
			<point x="600" y="-300" type="line"/>
			<point x="600" y="-121" type="line"/>
			<point x="389" y="300" type="line"/>
			<point x="600" y="721" type="line"/>
			<point x="600" y="900" type="line"/>
			<point x="511" y="900" type="line"/>
			<point x="300" y="479" type="line"/>
			<point x="89" y="900" type="line"/>
			<point x="0" y="900" type="line"/>
			<point x="0" y="721" type="line"/>
			<point x="211" y="300" type="line"/>
			<point x="0" y="-121" type="line"/>
			<point x="0" y="-300" type="line"/>
			<point x="89" y="-300" type="line"/>
			<point x="300" y="121" type="line"/>
		</contour>
	</outline>
</glyph>
<glyph name="squareblack" format="2">
	<unicode hex="25A0"/>
	<advance width="600"/>
	<outline>
		<contour>
			<point x="69" y="99" type="line"/>
			<point x="531" y="99" type="line"/>
			<point x="531" y="561" type="line"/>
			<point x="69" y="561" type="line"/>
		</contour>
	</outline>
</glyph>
<glyph name="bulletsquare" format="1">
	<unicode hex="25AA"/>
	<advance width="600"/>
	<outline>
		<contour>
			<point x="145" y="110" type="line"/>
			<point x="455" y="110" type="line"/>
			<point x="455" y="414" type="line"/>
			<point x="145" y="414" type="line"/>
		</contour>
	</outline>
</glyph>
<glyph name="trianglesmallupblack" format="1">
	<unicode hex="25B4"/>
	<advance width="600"/>
	<outline>
		<contour>
			<point x="119" y="111" type="line"/>
			<point x="481" y="111" type="line"/>
			<point x="481" y="115" type="line"/>
			<point x="302" y="445" type="line"/>
			<point x="298" y="445" type="line"/>
			<point x="119" y="115" type="line"/>
		</contour>
	</outline>
</glyph>
<glyph name="trianglerightblack" format="2">
	<unicode hex="25B6"/>
	<advance width="600"/>
	<outline>
		<contour>
			<point x="69" y="106" type="line"/>
			<point x="73" y="106" type="line"/>
			<point x="551" y="339" type="line"/>
			<point x="551" y="343" type="line"/>
			<point x="73" y="575" type="line"/>
			<point x="69" y="575" type="line"/>
		</contour>
	</outline>
</glyph>
<glyph name="triangledownwhite" format="2">
	<unicode hex="25BD"/>
	<advance width="600"/>
	<outline>
		<contour>
			<point x="298" y="81" type="line"/>
			<point x="302" y="81" type="line"/>
			<point x="534" y="559" type="line"/>
			<point x="534" y="563" type="line"/>
			<point x="66" y="563" type="line"/>
			<point x="66" y="559" type="line"/>
		</contour>
		<contour>
			<point x="300" y="265" type="line"/>
			<point x="199" y="485" type="line"/>
			<point x="401" y="485" type="line"/>
		</contour>
	</outline>
</glyph>
<glyph name="triangleleftwhite" format="2">
	<unicode hex="25C1"/>
	<advance width="600"/>
	<outline>
		<contour>
			<point x="527" y="106" type="line"/>
			<point x="531" y="106" type="line"/>
			<point x="531" y="575" type="line"/>
			<point x="527" y="575" type="line"/>
			<point x="49" y="343" type="line"/>
			<point x="49" y="339" type="line"/>
		</contour>
		<contour>
			<point x="446" y="245" type="line"/>
			<point x="235" y="341" type="line"/>
			<point x="446" y="436" type="line"/>
		</contour>
	</outline>
</glyph>
<glyph name="trianglesmallleftblack" format="1">
	<unicode hex="25C2"/>
	<advance width="600"/>
	<outline>
		<contour>
			<point x="451" y="81" type="line"/>
			<point x="455" y="81" type="line"/>
			<point x="455" y="443" type="line"/>
			<point x="451" y="443" type="line"/>
			<point x="121" y="264" type="line"/>
			<point x="121" y="260" type="line"/>
		</contour>
	</outline>
</glyph>
<glyph name="lozenge" format="1">
	<unicode hex="25CA"/>
	<advance width="600"/>
	<outline>
		<contour>
			<point x="236" y="-10" type="line"/>
			<point x="364" y="-10" type="line"/>
			<point x="530" y="326" type="line"/>
			<point x="364" y="663" type="line"/>
			<point x="236" y="663" type="line"/>
			<point x="70" y="326" type="line"/>
		</contour>
		<contour>
			<point x="298" y="125" type="line"/>
			<point x="243" y="243" type="line"/>
			<point x="201" y="326" type="line"/>
			<point x="243" y="410" type="line"/>
			<point x="298" y="528" type="line"/>
			<point x="302" y="528" type="line"/>
			<point x="357" y="410" type="line"/>
			<point x="399" y="326" type="line"/>
			<point x="357" y="243" type="line"/>
			<point x="302" y="125" type="line"/>
		</contour>
	</outline>
</glyph>
<glyph name="circlewhite" format="2">
	<unicode hex="25CB"/>
	<advance width="600"/>
	<outline>
		<contour>
			<point x="300" y="68" type="curve" smooth="yes"/>
			<point x="454" y="68"/>
			<point x="566" y="180"/>
			<point x="566" y="330" type="curve" smooth="yes"/>
			<point x="566" y="480"/>
			<point x="454" y="592"/>
			<point x="300" y="592" type="curve" smooth="yes"/>
			<point x="146" y="592"/>
			<point x="34" y="480"/>
			<point x="34" y="330" type="curve" smooth="yes"/>
			<point x="34" y="180"/>
			<point x="146" y="68"/>
		</contour>
		<contour>
			<point x="300" y="149" type="curve" smooth="yes"/>
			<point x="201" y="149"/>
			<point x="129" y="226"/>
			<point x="129" y="330" type="curve" smooth="yes"/>
			<point x="129" y="434"/>
			<point x="201" y="511"/>
			<point x="300" y="511" type="curve" smooth="yes"/>
			<point x="399" y="511"/>
			<point x="471" y="434"/>
			<point x="471" y="330" type="curve" smooth="yes"/>
			<point x="471" y="226"/>
			<point x="399" y="149"/>
		</contour>
	</outline>
</glyph>
<glyph name="circledotted" format="1">
	<unicode hex="25CC"/>
	<advance width="600"/>
	<outline>
		<contour>
			<point x="288" y="-13" type="curve" smooth="yes"/>
			<point x="315" y="-13"/>
			<point x="333" y="4"/>
			<point x="333" y="34" type="curve" smooth="yes"/>
			<point x="333" y="62"/>
			<point x="314" y="78"/>
			<point x="288" y="78" type="curve" smooth="yes"/>
			<point x="265" y="78"/>
			<point x="245" y="62"/>
			<point x="245" y="34" type="curve" smooth="yes"/>
			<point x="245" y="4"/>
			<point x="265" y="-13"/>
		</contour>
		<contour>
			<point x="183" y="14" type="curve" smooth="yes"/>
			<point x="209" y="14"/>
			<point x="228" y="31"/>
			<point x="228" y="61" type="curve" smooth="yes"/>
			<point x="228" y="89"/>
			<point x="207" y="105"/>
			<point x="183" y="105" type="curve" smooth="yes"/>
			<point x="159" y="105"/>
			<point x="138" y="89"/>
			<point x="138" y="61" type="curve" smooth="yes"/>
			<point x="138" y="31"/>
			<point x="159" y="14"/>
		</contour>
		<contour>
			<point x="393" y="14" type="curve" smooth="yes"/>
			<point x="421" y="14"/>
			<point x="439" y="31"/>
			<point x="439" y="61" type="curve" smooth="yes"/>
			<point x="439" y="89"/>
			<point x="418" y="105"/>
			<point x="393" y="105" type="curve" smooth="yes"/>
			<point x="370" y="105"/>
			<point x="349" y="89"/>
			<point x="349" y="61" type="curve" smooth="yes"/>
			<point x="349" y="31"/>
			<point x="370" y="14"/>
		</contour>
		<contour>
			<point x="105" y="96" type="curve" smooth="yes"/>
			<point x="132" y="96"/>
			<point x="150" y="112"/>
			<point x="150" y="141" type="curve" smooth="yes"/>
			<point x="150" y="170"/>
			<point x="131" y="187"/>
			<point x="105" y="187" type="curve" smooth="yes"/>
			<point x="83" y="187"/>
			<point x="62" y="170"/>
			<point x="62" y="141" type="curve" smooth="yes"/>
			<point x="62" y="112"/>
			<point x="83" y="96"/>
		</contour>
		<contour>
			<point x="473" y="96" type="curve" smooth="yes"/>
			<point x="499" y="96"/>
			<point x="517" y="112"/>
			<point x="517" y="141" type="curve" smooth="yes"/>
			<point x="517" y="170"/>
			<point x="497" y="187"/>
			<point x="473" y="187" type="curve" smooth="yes"/>
			<point x="448" y="187"/>
			<point x="427" y="170"/>
			<point x="427" y="141" type="curve" smooth="yes"/>
			<point x="427" y="112"/>
			<point x="448" y="96"/>
		</contour>
		<contour>
			<point x="77" y="204" type="curve" smooth="yes"/>
			<point x="105" y="204"/>
			<point x="123" y="221"/>
			<point x="123" y="251" type="curve" smooth="yes"/>
			<point x="123" y="279"/>
			<point x="103" y="295"/>
			<point x="77" y="295" type="curve" smooth="yes"/>
			<point x="54" y="295"/>
			<point x="33" y="279"/>
			<point x="33" y="251" type="curve" smooth="yes"/>
			<point x="33" y="221"/>
			<point x="54" y="204"/>
		</contour>
		<contour>
			<point x="499" y="204" type="curve" smooth="yes"/>
			<point x="525" y="204"/>
			<point x="544" y="221"/>
			<point x="544" y="251" type="curve" smooth="yes"/>
			<point x="544" y="279"/>
			<point x="523" y="295"/>
			<point x="499" y="295" type="curve" smooth="yes"/>
			<point x="474" y="295"/>
			<point x="454" y="279"/>
			<point x="454" y="251" type="curve" smooth="yes"/>
			<point x="454" y="221"/>
			<point x="474" y="204"/>
		</contour>
		<contour>
			<point x="105" y="313" type="curve" smooth="yes"/>
			<point x="132" y="313"/>
			<point x="150" y="331"/>
			<point x="150" y="360" type="curve" smooth="yes"/>
			<point x="150" y="390"/>
			<point x="131" y="405"/>
			<point x="105" y="405" type="curve" smooth="yes"/>
			<point x="83" y="405"/>
			<point x="62" y="390"/>
			<point x="62" y="360" type="curve" smooth="yes"/>
			<point x="62" y="331"/>
			<point x="83" y="313"/>
		</contour>
		<contour>
			<point x="473" y="313" type="curve" smooth="yes"/>
			<point x="499" y="313"/>
			<point x="517" y="330"/>
			<point x="517" y="359" type="curve" smooth="yes"/>
			<point x="517" y="388"/>
			<point x="497" y="404"/>
			<point x="473" y="404" type="curve" smooth="yes"/>
			<point x="448" y="404"/>
			<point x="427" y="388"/>
			<point x="427" y="359" type="curve" smooth="yes"/>
			<point x="427" y="330"/>
			<point x="448" y="313"/>
		</contour>
		<contour>
			<point x="183" y="395" type="curve" smooth="yes"/>
			<point x="209" y="395"/>
			<point x="228" y="412"/>
			<point x="228" y="440" type="curve" smooth="yes"/>
			<point x="228" y="470"/>
			<point x="207" y="486"/>
			<point x="183" y="486" type="curve" smooth="yes"/>
			<point x="159" y="486"/>
			<point x="138" y="470"/>
			<point x="138" y="440" type="curve" smooth="yes"/>
			<point x="138" y="412"/>
			<point x="159" y="395"/>
		</contour>
		<contour>
			<point x="393" y="394" type="curve" smooth="yes"/>
			<point x="421" y="394"/>
			<point x="439" y="411"/>
			<point x="439" y="440" type="curve" smooth="yes"/>
			<point x="439" y="469"/>
			<point x="418" y="486"/>
			<point x="393" y="486" type="curve" smooth="yes"/>
			<point x="370" y="486"/>
			<point x="349" y="469"/>
			<point x="349" y="440" type="curve" smooth="yes"/>
			<point x="349" y="411"/>
			<point x="370" y="394"/>
		</contour>
		<contour>
			<point x="288" y="421" type="curve" smooth="yes"/>
			<point x="315" y="421"/>
			<point x="333" y="439"/>
			<point x="333" y="468" type="curve" smooth="yes"/>
			<point x="333" y="496"/>
			<point x="314" y="512"/>
			<point x="288" y="512" type="curve" smooth="yes"/>
			<point x="265" y="512"/>
			<point x="245" y="496"/>
			<point x="245" y="468" type="curve" smooth="yes"/>
			<point x="245" y="439"/>
			<point x="265" y="421"/>
		</contour>
		<contour>
			<point name="hornLC" x="390" y="500" type="move"/>
		</contour>
		<contour>
			<point name="center" x="288" y="250" type="move"/>
		</contour>
		<contour>
			<point name="aboverightLC" x="448" y="520" type="move"/>
		</contour>
		<contour>
			<point name="ogonekLC" x="240" y="0" type="move"/>
		</contour>
		<contour>
			<point name="aboveLC" x="342" y="520" type="move"/>
		</contour>
		<contour>
			<point name="baseLC" x="240" y="0" type="move"/>
		</contour>
		<contour>
			<point name="belowLC" x="234" y="-20" type="move"/>
		</contour>
	</outline>
</glyph>
<glyph name="invcircle" format="2">
	<unicode hex="25D9"/>
	<advance width="600"/>
	<outline>
		<contour>
			<point x="38" y="72" type="line"/>
			<point x="562" y="72" type="line"/>
			<point x="562" y="588" type="line"/>
			<point x="38" y="588" type="line"/>
		</contour>
		<contour>
			<point x="300" y="76" type="curve" smooth="yes"/>
			<point x="150" y="76"/>
			<point x="42" y="184"/>
			<point x="42" y="330" type="curve" smooth="yes"/>
			<point x="42" y="476"/>
			<point x="150" y="584"/>
			<point x="300" y="584" type="curve" smooth="yes"/>
			<point x="450" y="584"/>
			<point x="558" y="476"/>
			<point x="558" y="330" type="curve" smooth="yes"/>
			<point x="558" y="184"/>
			<point x="450" y="76"/>
		</contour>
		<contour>
			<point x="300" y="157" type="curve" smooth="yes"/>
			<point x="395" y="157"/>
			<point x="463" y="230"/>
			<point x="463" y="330" type="curve" smooth="yes"/>
			<point x="463" y="430"/>
			<point x="395" y="503"/>
			<point x="300" y="503" type="curve" smooth="yes"/>
			<point x="205" y="503"/>
			<point x="137" y="430"/>
			<point x="137" y="330" type="curve" smooth="yes"/>
			<point x="137" y="230"/>
			<point x="205" y="157"/>
		</contour>
	</outline>
</glyph>
<glyph name="checkedbox" format="1">
	<unicode hex="2611"/>
	<advance width="600"/>
	<outline>
		<contour>
			<point x="219" y="109" type="curve"/>
			<point x="368" y="126" type="line"/>
			<point x="447" y="416"/>
			<point x="579" y="611"/>
			<point x="705" y="732" type="curve"/>
			<point x="607" y="817" type="line"/>
			<point x="480" y="682"/>
			<point x="355" y="467"/>
			<point x="285" y="228" type="curve"/>
			<point x="281" y="228" type="line"/>
			<point x="254" y="301"/>
			<point x="225" y="373"/>
			<point x="181" y="446" type="curve"/>
			<point x="79" y="380" type="line"/>
			<point x="142" y="288"/>
			<point x="182" y="211"/>
		</contour>
		<component base="checkbox"/>
	</outline>
</glyph>
<glyph name="female" format="2">
	<unicode hex="2640"/>
	<advance width="600"/>
	<outline>
		<contour>
			<point x="300" y="219" type="curve" smooth="yes"/>
			<point x="452" y="219"/>
			<point x="557" y="326"/>
			<point x="557" y="464" type="curve" smooth="yes"/>
			<point x="557" y="603"/>
			<point x="452" y="708"/>
			<point x="300" y="708" type="curve" smooth="yes"/>
			<point x="148" y="708"/>
			<point x="43" y="603"/>
			<point x="43" y="464" type="curve" smooth="yes"/>
			<point x="43" y="326"/>
			<point x="148" y="219"/>
		</contour>
		<contour>
			<point x="300" y="319" type="curve" smooth="yes"/>
			<point x="219" y="319"/>
			<point x="161" y="381"/>
			<point x="161" y="464" type="curve" smooth="yes"/>
			<point x="161" y="547"/>
			<point x="219" y="608"/>
			<point x="300" y="608" type="curve" smooth="yes"/>
			<point x="381" y="608"/>
			<point x="437" y="547"/>
			<point x="437" y="464" type="curve" smooth="yes"/>
			<point x="437" y="381"/>
			<point x="381" y="319"/>
		</contour>
		<contour>
			<point x="242" y="-58" type="line"/>
			<point x="358" y="-58" type="line"/>
			<point x="358" y="45" type="line"/>
			<point x="493" y="45" type="line"/>
			<point x="493" y="158" type="line"/>
			<point x="358" y="158" type="line"/>
			<point x="358" y="298" type="line"/>
			<point x="242" y="298" type="line"/>
			<point x="242" y="158" type="line"/>
			<point x="107" y="158" type="line"/>
			<point x="107" y="45" type="line"/>
			<point x="242" y="45" type="line"/>
		</contour>
	</outline>
</glyph>
<glyph name="male" format="2">
	<unicode hex="2642"/>
	<advance width="600"/>
	<outline>
		<contour>
			<point x="233" y="-9" type="curve" smooth="yes"/>
			<point x="385" y="-9"/>
			<point x="491" y="96"/>
			<point x="491" y="235" type="curve" smooth="yes"/>
			<point x="491" y="372"/>
			<point x="385" y="479"/>
			<point x="233" y="479" type="curve" smooth="yes"/>
			<point x="81" y="479"/>
			<point x="-24" y="372"/>
			<point x="-24" y="235" type="curve" smooth="yes"/>
			<point x="-24" y="96"/>
			<point x="81" y="-9"/>
		</contour>
		<contour>
			<point x="233" y="90" type="curve" smooth="yes"/>
			<point x="153" y="90"/>
			<point x="96" y="151"/>
			<point x="96" y="235" type="curve" smooth="yes"/>
			<point x="96" y="318"/>
			<point x="153" y="379"/>
			<point x="233" y="379" type="curve" smooth="yes"/>
			<point x="315" y="379"/>
			<point x="372" y="318"/>
			<point x="372" y="235" type="curve" smooth="yes"/>
			<point x="372" y="151"/>
			<point x="315" y="90"/>
		</contour>
		<contour>
			<point x="407" y="333" type="line"/>
			<point x="534" y="470" type="line"/>
			<point x="526" y="351" type="line"/>
			<point x="631" y="351" type="line"/>
			<point x="633" y="647" type="line"/>
			<point x="630" y="650" type="line"/>
			<point x="335" y="648" type="line"/>
			<point x="335" y="542" type="line"/>
			<point x="453" y="550" type="line"/>
			<point x="316" y="424" type="line"/>
		</contour>
	</outline>
</glyph>
<glyph name="spade" format="2">
	<unicode hex="2660"/>
	<advance width="600"/>
	<outline>
		<contour>
			<point x="94" y="0" type="line"/>
			<point x="506" y="0" type="line"/>
			<point x="506" y="61" type="line"/>
			<point x="407" y="75"/>
			<point x="350" y="125"/>
			<point x="330" y="272" type="curve"/>
			<point x="270" y="272" type="line"/>
			<point x="250" y="125"/>
			<point x="193" y="75"/>
			<point x="94" y="61" type="curve"/>
		</contour>
		<contour>
			<point x="260" y="248" type="curve"/>
			<point x="340" y="248" type="line"/>
			<point x="370" y="180"/>
			<point x="415" y="158"/>
			<point x="467" y="158" type="curve" smooth="yes"/>
			<point x="544" y="158"/>
			<point x="602" y="201"/>
			<point x="602" y="294" type="curve" smooth="yes"/>
			<point x="602" y="414"/>
			<point x="537" y="485"/>
			<point x="302" y="710" type="curve"/>
			<point x="298" y="710" type="line"/>
			<point x="63" y="485"/>
			<point x="-2" y="414"/>
			<point x="-2" y="294" type="curve" smooth="yes"/>
			<point x="-2" y="201"/>
			<point x="56" y="158"/>
			<point x="133" y="158" type="curve" smooth="yes"/>
			<point x="185" y="158"/>
			<point x="230" y="180"/>
		</contour>
	</outline>
</glyph>
<glyph name="diamond" format="2">
	<unicode hex="2666"/>
	<advance width="600"/>
	<outline>
		<contour>
			<point x="302" y="-12" type="line"/>
			<point x="606" y="347" type="line"/>
			<point x="606" y="351" type="line"/>
			<point x="302" y="710" type="line"/>
			<point x="298" y="710" type="line"/>
			<point x="-6" y="351" type="line"/>
			<point x="-6" y="347" type="line"/>
			<point x="298" y="-12" type="line"/>
		</contour>
	</outline>
</glyph>
<glyph name="brackhalfbotright" format="2">
	<unicode hex="2E25"/>
	<advance width="600"/>
	<outline>
		<contour>
			<point x="14" y="-152" type="line"/>
			<point x="312" y="-152" type="line"/>
			<point x="400" y="278" type="line"/>
			<point x="280" y="278" type="line"/>
			<point x="210" y="-68" type="line"/>
			<point x="30" y="-68" type="line"/>
		</contour>
	</outline>
</glyph>
<glyph name="robot" format="2">
	<unicode hex="1F916"/>
	<advance width="600"/>
	<outline>
		<contour>
			<point x="300" y="26" type="curve" smooth="yes"/>
			<point x="476" y="26"/>
			<point x="604" y="138"/>
			<point x="604" y="350" type="curve" smooth="yes"/>
			<point x="604" y="537"/>
			<point x="489" y="634"/>
			<point x="300" y="634" type="curve" smooth="yes"/>
			<point x="111" y="634"/>
			<point x="-4" y="537"/>
			<point x="-4" y="350" type="curve" smooth="yes"/>
			<point x="-4" y="138"/>
			<point x="124" y="26"/>
		</contour>
		<contour>
			<point x="300" y="98" type="curve" smooth="yes"/>
			<point x="169" y="98"/>
			<point x="74" y="177"/>
			<point x="74" y="350" type="curve" smooth="yes"/>
			<point x="74" y="496"/>
			<point x="156" y="562"/>
			<point x="300" y="562" type="curve" smooth="yes"/>
			<point x="444" y="562"/>
			<point x="526" y="496"/>
			<point x="526" y="350" type="curve" smooth="yes"/>
			<point x="526" y="177"/>
			<point x="431" y="98"/>
		</contour>
		<contour>
			<point x="300" y="258" type="curve" smooth="yes"/>
			<point x="420" y="258"/>
			<point x="485" y="282"/>
			<point x="485" y="354" type="curve" smooth="yes"/>
			<point x="485" y="464"/>
			<point x="409" y="514"/>
			<point x="300" y="514" type="curve" smooth="yes"/>
			<point x="191" y="514"/>
			<point x="115" y="464"/>
			<point x="115" y="354" type="curve" smooth="yes"/>
			<point x="115" y="282"/>
			<point x="180" y="258"/>
		</contour>
		<contour>
			<point x="150" y="332" type="line"/>
			<point x="152" y="418"/>
			<point x="176" y="452"/>
			<point x="218" y="452" type="curve" smooth="yes"/>
			<point x="260" y="452"/>
			<point x="284" y="418"/>
			<point x="286" y="332" type="curve"/>
			<point x="254" y="330" type="line"/>
			<point x="252" y="374"/>
			<point x="242" y="392"/>
			<point x="218" y="392" type="curve" smooth="yes"/>
			<point x="194" y="392"/>
			<point x="184" y="374"/>
			<point x="182" y="330" type="curve"/>
		</contour>
		<contour>
			<point x="314" y="332" type="line"/>
			<point x="316" y="418"/>
			<point x="340" y="452"/>
			<point x="382" y="452" type="curve" smooth="yes"/>
			<point x="424" y="452"/>
			<point x="448" y="418"/>
			<point x="450" y="332" type="curve"/>
			<point x="418" y="330" type="line"/>
			<point x="416" y="374"/>
			<point x="406" y="392"/>
			<point x="382" y="392" type="curve" smooth="yes"/>
			<point x="358" y="392"/>
			<point x="348" y="374"/>
			<point x="346" y="330" type="curve"/>
		</contour>
		<contour>
			<point x="300" y="150" type="curve" smooth="yes"/>
			<point x="320" y="150"/>
			<point x="338" y="160"/>
			<point x="338" y="181" type="curve" smooth="yes"/>
			<point x="338" y="196"/>
			<point x="331" y="200"/>
			<point x="300" y="200" type="curve" smooth="yes"/>
			<point x="269" y="200"/>
			<point x="262" y="196"/>
			<point x="262" y="181" type="curve" smooth="yes"/>
			<point x="262" y="160"/>
			<point x="280" y="150"/>
		</contour>
		<contour>
			<point x="59" y="190" type="curve"/>
			<point x="59" y="442" type="line"/>
			<point x="-15" y="442"/>
			<point x="-42" y="419"/>
			<point x="-42" y="348" type="curve" smooth="yes"/>
			<point x="-42" y="240"/>
			<point x="-9" y="190"/>
		</contour>
		<contour>
			<point x="541" y="190" type="line"/>
			<point x="609" y="190"/>
			<point x="642" y="240"/>
			<point x="642" y="348" type="curve" smooth="yes"/>
			<point x="642" y="419"/>
			<point x="615" y="442"/>
			<point x="541" y="442" type="curve"/>
		</contour>
	</outline>
</glyph>
<glyph name="a.a" format="1">
	<advance width="600"/>
	<outline>
		<contour>
			<point x="160" y="-12" type="curve" smooth="yes"/>
			<point x="228" y="-12"/>
			<point x="288" y="14"/>
			<point x="338" y="62" type="curve"/>
			<point x="342" y="62" type="line"/>
			<point x="342" y="0" type="line"/>
			<point x="472" y="0" type="line"/>
			<point x="526" y="276" type="line" smooth="yes"/>
			<point x="532" y="306"/>
			<point x="534" y="326"/>
			<point x="534" y="348" type="curve" smooth="yes"/>
			<point x="534" y="460"/>
			<point x="454" y="512"/>
			<point x="345" y="512" type="curve" smooth="yes"/>
			<point x="254" y="512"/>
			<point x="176" y="492"/>
			<point x="96" y="456" type="curve"/>
			<point x="142" y="346" type="line"/>
			<point x="214" y="376"/>
			<point x="255" y="388"/>
			<point x="303" y="388" type="curve" smooth="yes"/>
			<point x="358" y="388"/>
			<point x="378" y="368"/>
			<point x="378" y="336" type="curve" smooth="yes"/>
			<point x="378" y="334"/>
			<point x="378" y="330"/>
			<point x="376" y="320" type="curve"/>
			<point x="126" y="312"/>
			<point x="22" y="236"/>
			<point x="22" y="112" type="curve" smooth="yes"/>
			<point x="22" y="38"/>
			<point x="80" y="-12"/>
		</contour>
		<contour>
			<point x="224" y="110" type="curve" smooth="yes"/>
			<point x="193" y="110"/>
			<point x="178" y="122"/>
			<point x="178" y="146" type="curve" smooth="yes"/>
			<point x="178" y="184"/>
			<point x="226" y="224"/>
			<point x="360" y="232" type="curve"/>
			<point x="350" y="170" type="line"/>
			<point x="316" y="130"/>
			<point x="260" y="110"/>
		</contour>
		<contour>
			<point name="ogonekLC" x="364" y="0" type="move"/>
		</contour>
		<contour>
			<point name="aboveLC" x="330" y="520" type="move"/>
		</contour>
		<contour>
			<point name="baseLC" x="408" y="0" type="move"/>
		</contour>
		<contour>
			<point name="belowLC" x="240" y="-20" type="move"/>
		</contour>
	</outline>
</glyph>
<glyph name="acutecmb.cap" format="2">
	<advance width="600"/>
	<outline>
		<contour>
			<point x="332" y="680" type="line"/>
			<point x="548" y="782" type="line"/>
			<point x="478" y="899" type="line"/>
			<point x="271" y="772" type="line"/>
		</contour>
	</outline>
	<anchor name="_aboveUC" x="370" y="670"/>
</glyph>
<glyph name="breveacutecmb" format="2">
	<advance width="600"/>
	<outline>
		<contour>
			<point x="352" y="572" type="curve" smooth="yes"/>
			<point x="470" y="572"/>
			<point x="536" y="638"/>
			<point x="554" y="732" type="curve"/>
			<point x="472" y="748" type="line"/>
			<point x="457" y="702"/>
			<point x="424" y="668"/>
			<point x="370" y="668" type="curve" smooth="yes"/>
			<point x="316" y="668"/>
			<point x="295" y="702"/>
			<point x="296" y="748" type="curve"/>
			<point x="206" y="732" type="line"/>
			<point x="192" y="638"/>
			<point x="235" y="572"/>
		</contour>
		<contour>
			<point x="384" y="709" type="line"/>
			<point x="528" y="821" type="line"/>
			<point x="442" y="903" type="line"/>
			<point x="320" y="765" type="line"/>
		</contour>
	</outline>
	<anchor name="_aboveLC" x="340" y="520"/>
</glyph>
<glyph name="brevecmb.cap" format="2">
	<advance width="600"/>
	<outline>
		<contour>
			<point x="376" y="694" type="curve" smooth="yes"/>
			<point x="480" y="694"/>
			<point x="546" y="742"/>
			<point x="574" y="844" type="curve"/>
			<point x="486" y="860" type="line"/>
			<point x="467" y="815"/>
			<point x="436" y="792"/>
			<point x="394" y="792" type="curve" smooth="yes"/>
			<point x="352" y="792"/>
			<point x="323" y="814"/>
			<point x="322" y="860" type="curve"/>
			<point x="226" y="844" type="line"/>
			<point x="220" y="741"/>
			<point x="271" y="694"/>
		</contour>
	</outline>
	<anchor name="_aboveUC" x="370" y="670"/>
</glyph>
<glyph name="candrabinducmb.cap" format="1">
	<advance width="600"/>
	<outline>
		<contour>
			<point x="376" y="694" type="curve" smooth="yes"/>
			<point x="488" y="694"/>
			<point x="564" y="738"/>
			<point x="596" y="834" type="curve"/>
			<point x="514" y="850" type="line"/>
			<point x="490" y="802"/>
			<point x="445" y="782"/>
			<point x="393" y="782" type="curve" smooth="yes"/>
			<point x="346" y="782"/>
			<point x="306" y="802"/>
			<point x="300" y="850" type="curve"/>
			<point x="216" y="834" type="line"/>
			<point x="212" y="738"/>
			<point x="272" y="694"/>
		</contour>
		<contour>
			<point x="404" y="816" type="curve" smooth="yes"/>
			<point x="454" y="816"/>
			<point x="500" y="860"/>
			<point x="500" y="912" type="curve" smooth="yes"/>
			<point x="500" y="958"/>
			<point x="466" y="978"/>
			<point x="428" y="978" type="curve" smooth="yes"/>
			<point x="378" y="978"/>
			<point x="332" y="934"/>
			<point x="332" y="882" type="curve" smooth="yes"/>
			<point x="332" y="836"/>
			<point x="366" y="816"/>
		</contour>
		<contour>
			<point name="_aboveUC" x="370" y="670" type="move"/>
		</contour>
	</outline>
</glyph>
<glyph name="circumflexhoicmb" format="2">
	<advance width="600"/>
	<outline>
		<contour>
			<point x="248" y="564" type="line"/>
			<point x="364" y="630" type="line"/>
			<point x="368" y="630" type="line"/>
			<point x="456" y="564" type="line"/>
			<point x="518" y="620" type="line"/>
			<point x="444" y="716" type="line"/>
			<point x="308" y="716" type="line"/>
			<point x="202" y="628" type="line"/>
		</contour>
		<contour>
			<point x="509" y="648" type="line"/>
			<point x="580" y="656"/>
			<point x="640" y="676"/>
			<point x="654" y="746" type="curve" smooth="yes"/>
			<point x="663" y="792"/>
			<point x="633" y="824"/>
			<point x="512" y="828" type="curve"/>
			<point x="482" y="758" type="line"/>
			<point x="532" y="754"/>
			<point x="543" y="744"/>
			<point x="540" y="728" type="curve" smooth="yes"/>
			<point x="537" y="712"/>
			<point x="526" y="707"/>
			<point x="510" y="704" type="curve"/>
		</contour>
	</outline>
	<anchor name="_aboveLC" x="340" y="520"/>
</glyph>
<glyph name="dblgravecmb.cap" format="2">
	<advance width="600"/>
	<outline>
		<contour>
			<point x="224" y="689" type="line"/>
			<point x="315" y="721" type="line"/>
			<point x="240" y="893" type="line"/>
			<point x="122" y="843" type="line"/>
		</contour>
		<contour>
			<point x="422" y="689" type="line"/>
			<point x="513" y="721" type="line"/>
			<point x="438" y="893" type="line"/>
			<point x="320" y="843" type="line"/>
		</contour>
	</outline>
	<anchor name="_aboveUC" x="370" y="670"/>
</glyph>
<glyph name="endash.sups" format="1">
	<advance width="600"/>
	<outline>
		<contour>
			<point x="212" y="498" type="line"/>
			<point x="464" y="498" type="line"/>
			<point x="478" y="570" type="line"/>
			<point x="226" y="570" type="line"/>
		</contour>
	</outline>
</glyph>
<glyph name="fi" format="1">
	<advance width="600"/>
	<outline>
		<contour>
			<point x="12" y="0" type="line"/>
			<point x="172" y="0" type="line"/>
			<point x="246" y="376" type="line"/>
			<point x="340" y="376" type="line"/>
			<point x="364" y="500" type="line"/>
			<point x="272" y="500" type="line"/>
			<point x="276" y="520" type="line" smooth="yes"/>
			<point x="286" y="574"/>
			<point x="306" y="582"/>
			<point x="340" y="582" type="curve" smooth="yes"/>
			<point x="356" y="582"/>
			<point x="376" y="574"/>
			<point x="386" y="568" type="curve"/>
			<point x="436" y="680" type="line"/>
			<point x="402" y="698"/>
			<point x="362" y="708"/>
			<point x="322" y="708" type="curve" smooth="yes"/>
			<point x="196" y="708"/>
			<point x="136" y="618"/>
			<point x="116" y="514" type="curve" smooth="yes"/>
			<point x="114" y="500" type="line"/>
			<point x="48" y="494" type="line"/>
			<point x="24" y="376" type="line"/>
			<point x="88" y="376" type="line"/>
		</contour>
		<contour>
			<point x="330" y="0" type="line"/>
			<point x="490" y="0" type="line"/>
			<point x="590" y="500" type="line"/>
			<point x="430" y="500" type="line"/>
		</contour>
		<component base="dotaccentcmb" xOffset="174"/>
	</outline>
</glyph>
<glyph name="hhook.sups" format="2">
	<advance width="600"/>
	<outline>
		<contour>
			<point x="163" y="368" type="line" smooth="yes"/>
			<point x="273" y="368" type="line"/>
			<point x="313" y="570" type="line"/>
			<point x="334" y="586"/>
			<point x="354" y="597"/>
			<point x="377" y="597" type="curve" smooth="yes"/>
			<point x="405" y="597"/>
			<point x="410" y="580"/>
			<point x="403" y="541" type="curve" smooth="yes"/>
			<point x="370" y="368" type="line"/>
			<point x="480" y="368" type="line"/>
			<point x="517" y="555" type="line" smooth="yes"/>
			<point x="533" y="637"/>
			<point x="512" y="690"/>
			<point x="438" y="690" type="curve" smooth="yes"/>
			<point x="390" y="690"/>
			<point x="348" y="665"/>
			<point x="321" y="643" type="curve"/>
			<point x="340" y="704" type="line" smooth="yes"/>
			<point x="346" y="735"/>
			<point x="357" y="751"/>
			<point x="388" y="751" type="curve" smooth="yes"/>
			<point x="407" y="751"/>
			<point x="422" y="748"/>
			<point x="440" y="736" type="curve"/>
			<point x="478" y="810" type="line"/>
			<point x="456" y="824"/>
			<point x="426" y="836"/>
			<point x="378" y="836" type="curve" smooth="yes"/>
			<point x="300" y="836"/>
			<point x="249" y="794"/>
			<point x="233" y="716" type="curve" smooth="yes"/>
		</contour>
	</outline>
</glyph>
<glyph name="hungarumlautcmb.cap" format="1">
	<advance width="600"/>
	<outline>
		<contour>
			<point x="308" y="693" type="line"/>
			<point x="461" y="824" type="line"/>
			<point x="364" y="893" type="line"/>
			<point x="232" y="740" type="line"/>
		</contour>
		<contour>
			<point x="506" y="693" type="line"/>
			<point x="659" y="824" type="line"/>
			<point x="562" y="893" type="line"/>
			<point x="430" y="740" type="line"/>
		</contour>
		<contour>
			<point name="_aboveUC" x="370" y="670" type="move"/>
		</contour>
	</outline>
</glyph>
<glyph name="macroncmb.cap" format="1">
	<advance width="600"/>
	<outline>
		<contour>
			<point x="232" y="716" type="line"/>
			<point x="532" y="716" type="line"/>
			<point x="552" y="818" type="line"/>
			<point x="252" y="818" type="line"/>
		</contour>
		<contour>
			<point name="_aboveUC" x="370" y="670" type="move"/>
		</contour>
	</outline>
</glyph>
<glyph name="nine.subs" format="1">
	<advance width="600"/>
	<outline>
		<contour>
			<point x="221" y="-202" type="curve" smooth="yes"/>
			<point x="331" y="-202"/>
			<point x="435" y="-114"/>
			<point x="435" y="54" type="curve" smooth="yes"/>
			<point x="435" y="142"/>
			<point x="383" y="212"/>
			<point x="297" y="212" type="curve" smooth="yes"/>
			<point x="214" y="212"/>
			<point x="141" y="146"/>
			<point x="141" y="60" type="curve" smooth="yes"/>
			<point x="141" y="-6"/>
			<point x="181" y="-48"/>
			<point x="247" y="-48" type="curve" smooth="yes"/>
			<point x="277" y="-48"/>
			<point x="308" y="-34"/>
			<point x="327" y="-16" type="curve"/>
			<point x="337" y="60" type="line"/>
			<point x="320" y="41"/>
			<point x="299" y="30"/>
			<point x="279" y="30" type="curve" smooth="yes"/>
			<point x="257" y="30"/>
			<point x="245" y="42"/>
			<point x="245" y="64" type="curve" smooth="yes"/>
			<point x="245" y="98"/>
			<point x="267" y="120"/>
			<point x="287" y="120" type="curve" smooth="yes"/>
			<point x="311" y="120"/>
			<point x="327" y="106"/>
			<point x="327" y="58" type="curve" smooth="yes"/>
			<point x="327" y="-54"/>
			<point x="293" y="-110"/>
			<point x="231" y="-110" type="curve" smooth="yes"/>
			<point x="201" y="-110"/>
			<point x="185" y="-100"/>
			<point x="165" y="-80" type="curve"/>
			<point x="103" y="-150" type="line"/>
			<point x="133" y="-184"/>
			<point x="171" y="-202"/>
		</contour>
	</outline>
</glyph>
<glyph name="ogonekcmb.cap" format="1">
	<advance width="600"/>
	<outline>
		<contour>
			<point x="216" y="-228" type="curve" smooth="yes"/>
			<point x="254" y="-228"/>
			<point x="304" y="-216"/>
			<point x="336" y="-194" type="curve"/>
			<point x="306" y="-118" type="line"/>
			<point x="294" y="-124"/>
			<point x="286" y="-126"/>
			<point x="276" y="-126" type="curve" smooth="yes"/>
			<point x="254" y="-126"/>
			<point x="236" y="-114"/>
			<point x="236" y="-94" type="curve" smooth="yes"/>
			<point x="236" y="-66"/>
			<point x="266" y="-30"/>
			<point x="314" y="2" type="curve"/>
			<point x="218" y="2" type="line"/>
			<point x="184" y="-18"/>
			<point x="112" y="-76"/>
			<point x="112" y="-146" type="curve" smooth="yes"/>
			<point x="112" y="-198"/>
			<point x="154" y="-228"/>
		</contour>
		<contour>
			<point name="_ogonekUC" x="240" y="0" type="move"/>
		</contour>
	</outline>
</glyph>
<glyph name="one.onum" format="2">
	<advance width="600"/>
	<outline>
		<contour>
			<point x="14" y="0" type="line"/>
			<point x="482" y="0" type="line"/>
			<point x="508" y="128" type="line"/>
			<point x="368" y="128" type="line"/>
			<point x="458" y="580" type="line"/>
			<point x="340" y="580" type="line"/>
			<point x="288" y="548"/>
			<point x="234" y="532"/>
			<point x="146" y="520" type="curve"/>
			<point x="126" y="420" type="line"/>
			<point x="266" y="420" type="line"/>
			<point x="208" y="128" type="line"/>
			<point x="40" y="128" type="line"/>
		</contour>
	</outline>
</glyph>
<glyph name="q.sups" format="1">
	<advance width="600"/>
	<outline>
		<contour>
			<point x="334" y="250" type="line"/>
			<point x="444" y="250" type="line"/>
			<point x="533" y="698" type="line"/>
			<point x="447" y="698" type="line"/>
			<point x="432" y="664" type="line"/>
			<point x="429" y="664" type="line"/>
			<point x="408" y="693"/>
			<point x="385" y="706"/>
			<point x="349" y="706" type="curve" smooth="yes"/>
			<point x="256" y="706"/>
			<point x="167" y="621"/>
			<point x="167" y="488" type="curve" smooth="yes"/>
			<point x="167" y="408"/>
			<point x="208" y="360"/>
			<point x="278" y="360" type="curve" smooth="yes"/>
			<point x="307" y="360"/>
			<point x="341" y="374"/>
			<point x="367" y="394" type="curve"/>
			<point x="353" y="346" type="line"/>
		</contour>
		<contour>
			<point x="324" y="449" type="curve" smooth="yes"/>
			<point x="298" y="449"/>
			<point x="282" y="464"/>
			<point x="282" y="503" type="curve" smooth="yes"/>
			<point x="282" y="580"/>
			<point x="320" y="616"/>
			<point x="357" y="616" type="curve" smooth="yes"/>
			<point x="373" y="616"/>
			<point x="391" y="612"/>
			<point x="403" y="599" type="curve"/>
			<point x="378" y="474" type="line"/>
			<point x="360" y="455"/>
			<point x="344" y="449"/>
		</contour>
	</outline>
</glyph>
<glyph name="r.sups" format="1">
	<advance width="600"/>
	<outline>
		<contour>
			<point x="198" y="368" type="line"/>
			<point x="308" y="368" type="line"/>
			<point x="340" y="529" type="line"/>
			<point x="375" y="586"/>
			<point x="416" y="608"/>
			<point x="452" y="610" type="curve" smooth="yes"/>
			<point x="473" y="611"/>
			<point x="486" y="608"/>
			<point x="504" y="601" type="curve"/>
			<point x="543" y="692" type="line"/>
			<point x="527" y="700"/>
			<point x="512" y="706"/>
			<point x="488" y="706" type="curve" smooth="yes"/>
			<point x="439" y="706"/>
			<point x="392" y="680"/>
			<point x="352" y="627" type="curve"/>
			<point x="349" y="627" type="line"/>
			<point x="355" y="698" type="line"/>
			<point x="264" y="698" type="line"/>
		</contour>
	</outline>
</glyph>
<glyph name="seven.dnom" format="1">
	<advance width="600"/>
	<outline>
		<contour>
			<point x="171" y="0" type="curve"/>
			<point x="293" y="0" type="line"/>
			<point x="315" y="112"/>
			<point x="342" y="172"/>
			<point x="435" y="254" type="curve"/>
			<point x="447" y="313" type="line"/>
			<point x="180" y="313" type="line"/>
			<point x="160" y="222" type="line"/>
			<point x="322" y="222" type="line"/>
			<point x="304" y="228" type="line"/>
			<point x="237" y="164"/>
			<point x="194" y="88"/>
		</contour>
	</outline>
</glyph>
<glyph name="two.subs" format="1">
	<advance width="600"/>
	<outline>
		<contour>
			<point x="98" y="-190" type="line"/>
			<point x="382" y="-190" type="line"/>
			<point x="402" y="-92" type="line"/>
			<point x="302" y="-92" type="line"/>
			<point x="374" y="-31"/>
			<point x="426" y="28"/>
			<point x="426" y="96" type="curve" smooth="yes"/>
			<point x="426" y="168"/>
			<point x="374" y="212"/>
			<point x="290" y="212" type="curve" smooth="yes"/>
			<point x="234" y="212"/>
			<point x="198" y="190"/>
			<point x="150" y="148" type="curve"/>
			<point x="214" y="80" type="line"/>
			<point x="234" y="98"/>
			<point x="250" y="112"/>
			<point x="268" y="112" type="curve" smooth="yes"/>
			<point x="296" y="112"/>
			<point x="310" y="96"/>
			<point x="310" y="74" type="curve" smooth="yes"/>
			<point x="310" y="22"/>
			<point x="240" y="-46"/>
			<point x="110" y="-128" type="curve"/>
		</contour>
	</outline>
</glyph>
<glyph name="x.sups" format="1">
	<advance width="600"/>
	<outline>
		<contour>
			<point x="137" y="368" type="line"/>
			<point x="258" y="368" type="line"/>
			<point x="290" y="411" type="line" smooth="yes"/>
			<point x="303" y="428"/>
			<point x="322" y="460"/>
			<point x="330" y="474" type="curve"/>
			<point x="332" y="474" type="line"/>
			<point x="336" y="462"/>
			<point x="348" y="430"/>
			<point x="357" y="410" type="curve" smooth="yes"/>
			<point x="377" y="368" type="line"/>
			<point x="490" y="368" type="line"/>
			<point x="413" y="523" type="line"/>
			<point x="552" y="698" type="line"/>
			<point x="432" y="698" type="line"/>
			<point x="400" y="649" type="line" smooth="yes"/>
			<point x="388" y="631"/>
			<point x="374" y="608"/>
			<point x="364" y="590" type="curve"/>
			<point x="361" y="590" type="line"/>
			<point x="355" y="608"/>
			<point x="346" y="633"/>
			<point x="340" y="649" type="curve" smooth="yes"/>
			<point x="320" y="698" type="line"/>
			<point x="206" y="698" type="line"/>
			<point x="277" y="543" type="line"/>
		</contour>
	</outline>
</glyph>
<glyph name="zero.cap" format="1">
	<advance width="600"/>
	<outline>
		<contour>
			<point x="252" y="-12" type="curve" smooth="yes"/>
			<point x="464" y="-12"/>
			<point x="570" y="175"/>
			<point x="570" y="394" type="curve" smooth="yes"/>
			<point x="570" y="566"/>
			<point x="490" y="662"/>
			<point x="352" y="662" type="curve" smooth="yes"/>
			<point x="140" y="662"/>
			<point x="34" y="475"/>
			<point x="34" y="256" type="curve" smooth="yes"/>
			<point x="34" y="84"/>
			<point x="114" y="-12"/>
		</contour>
		<contour>
			<point x="270" y="110" type="curve" smooth="yes"/>
			<point x="214" y="110"/>
			<point x="184" y="146"/>
			<point x="184" y="256" type="curve" smooth="yes"/>
			<point x="184" y="408"/>
			<point x="236" y="540"/>
			<point x="334" y="540" type="curve" smooth="yes"/>
			<point x="390" y="540"/>
			<point x="420" y="504"/>
			<point x="420" y="394" type="curve" smooth="yes"/>
			<point x="420" y="242"/>
			<point x="368" y="110"/>
		</contour>
		<contour>
			<point x="292" y="246" type="curve" smooth="yes"/>
			<point x="338" y="246"/>
			<point x="372" y="286"/>
			<point x="372" y="338" type="curve" smooth="yes"/>
			<point x="372" y="374"/>
			<point x="356" y="406"/>
			<point x="314" y="406" type="curve" smooth="yes"/>
			<point x="268" y="406"/>
			<point x="234" y="366"/>
			<point x="234" y="314" type="curve" smooth="yes"/>
			<point x="234" y="278"/>
			<point x="250" y="246"/>
		</contour>
	</outline>
</glyph>
